<svg width="178" height="49" viewBox="0 0 178 49" fill="none" xmlns="http://www.w3.org/2000/svg">
<path fill-rule="evenodd" clip-rule="evenodd" d="M35.2956 1.72491C35.4575 1.39352 36.0238 0.979279 36.0238 0.979279H45.5706C54.7123 0.979279 55.1638 0.979279 55.3526 1.20199C55.3624 1.21356 55.3715 1.22573 55.3811 1.23854L55.3811 1.23856C55.3976 1.26066 55.4156 1.28464 55.441 1.31067C55.4734 1.37695 55.5316 1.44323 55.5899 1.5095C55.6772 1.60892 55.7646 1.70834 55.7646 1.80776L55.9264 2.0563V5.28736V8.76697C55.8455 9.01551 55.6028 9.42975 55.3601 9.59545L55.3458 9.60641C55.0377 9.84399 55.0377 9.84399 49.7776 9.84399H44.8424V39.752H49.8585L54.8747 39.8349H55.1174C55.441 40.0006 55.7646 40.332 55.8455 40.6634V44.2258C55.8455 46.713 55.7923 47.3457 55.7722 47.5845V47.5845C55.7675 47.64 55.7646 47.6742 55.7646 47.7054C55.6837 47.954 55.1174 48.5339 55.1174 48.5339H45.4088L35.9429 48.4511H35.7811C35.5384 48.2854 35.1338 47.8711 35.1338 47.6226V24.6737V1.97345L35.2956 1.72491ZM74.4542 1.72491C74.616 1.39352 75.1823 0.979279 75.1823 0.979279H84.7291C93.8536 0.979279 94.3104 0.979279 94.5668 1.20596C94.5803 1.21791 94.5932 1.23048 94.6069 1.24372C94.6282 1.26438 94.6511 1.28666 94.6804 1.31067C94.7613 1.47637 95.004 1.80776 95.004 1.80776L95.1658 2.0563V24.7566C95.1658 46.9598 95.1658 47.4569 95.0849 47.7054C95.004 47.954 94.6804 48.2854 94.4377 48.4511L94.2759 48.5339H84.81L75.3441 48.4511H75.1014C74.8587 48.2854 74.4542 47.8711 74.3733 47.6226V44.0601C74.3733 43.4341 74.371 42.9202 74.3691 42.4965C74.362 40.899 74.3606 40.583 74.5086 40.3714C74.545 40.3193 74.5905 40.2735 74.6473 40.2165L74.6474 40.2164L74.6723 40.1912L74.6969 40.1663C74.8587 40.0834 75.1014 39.752 75.1014 39.752H75.2632H80.3602H85.4572V9.76114H80.522C75.4179 9.76114 75.2677 9.6831 74.9674 9.52701L74.9396 9.5126C74.6969 9.34691 74.4542 9.09836 74.3733 8.84982L74.3654 8.82559L74.3625 8.81638L74.3562 8.79587C74.2923 8.58212 74.2923 8.34931 74.2923 5.28736V1.97345L74.4542 1.72491ZM1.88221 10.6725L0.830444 11.0039V21.1942V31.3845L1.55859 31.7159C2.69126 32.2958 3.90483 32.6272 5.11841 32.7929C5.63264 32.8514 6.51004 32.8273 7.20915 32.808C7.49997 32.8001 7.75994 32.7929 7.95008 32.7929C10.3772 32.2958 12.238 30.9702 13.2089 28.9819C14.3416 26.6622 14.1798 23.3483 12.8853 21.1114C12.238 19.9515 11.3481 19.123 10.1345 18.5431C9.00185 17.9631 8.03099 17.7974 6.6556 17.8803C5.28022 17.8803 4.39026 18.2117 3.3385 18.8745L2.93397 19.123V14.7321V10.3411C2.93397 10.3411 2.44854 10.5068 1.88221 10.6725ZM8.2737 19.9515C9.32547 20.2829 10.2963 20.9457 10.8627 21.857C11.5099 22.8512 11.7526 23.9282 11.7526 25.4194C11.7526 27.1592 11.3481 28.402 10.4581 29.3133C9.8918 29.8932 9.32547 30.2246 8.43551 30.556C7.06013 31.0531 4.79479 30.8874 3.3385 30.3075L3.01488 30.1418V25.668V21.1942L3.3385 20.9457C3.90483 20.4486 4.71388 20.1172 5.52293 19.9515C6.17017 19.7858 6.33198 19.7858 7.14103 19.8686C7.70737 19.8686 7.95008 19.8686 8.2737 19.9515ZM152.203 19.6202C152.203 19.4545 152.527 19.0403 154.388 16.8862L154.55 17.0519C156.249 15.0636 156.815 14.4837 156.815 14.4837H156.896V18.0461H161.427V19.8688H156.896V24.2597V28.982C157.058 29.8105 157.381 29.9762 158.433 29.9762C159.161 29.9762 159.97 29.8105 160.779 29.4791C161.103 29.3134 161.427 29.2306 161.427 29.2306V30.1419V31.2189H161.184C159.97 31.716 158.918 31.9645 157.786 31.9645C156.734 31.9645 156.006 31.716 155.52 31.2189C155.116 30.8047 154.954 30.4733 154.792 29.8933C154.55 29.2306 154.55 28.8163 154.55 24.1768V19.7859H152.203V19.6202ZM49.0498 16.886C49.0498 16.886 48.888 16.9689 48.8071 17.0517L48.6453 17.2174V19.1229C48.6453 20.9456 48.6453 21.0284 48.7262 21.1113L48.7503 21.1361L48.7503 21.1362C48.783 21.1701 48.8108 21.1988 48.842 21.2232C49.0164 21.3598 49.2978 21.3598 51.1533 21.3598H53.176V27.7391H51.0724H48.9689L48.8071 27.9048L48.6453 28.0705V29.976C48.6453 31.7987 48.6453 31.8815 48.7262 31.9643C48.7408 31.9793 48.7527 31.9933 48.7639 32.0064C48.7731 32.0172 48.7817 32.0273 48.7909 32.037C48.9591 32.2129 49.3112 32.2129 56.0886 32.2129C62.7593 32.2129 63.2676 32.2129 63.401 31.9893C63.412 31.9708 63.4205 31.9508 63.4296 31.9292C63.4336 31.9198 63.4378 31.91 63.4423 31.8999C63.445 31.8939 63.4478 31.8878 63.4509 31.8815C63.5318 31.7158 63.5318 31.5501 63.4509 29.8932C63.4509 28.2362 63.4509 28.0705 63.37 27.9877C63.2082 27.7391 63.1273 27.7391 60.9429 27.7391H58.9202V21.3598H60.9429C62.7722 21.3598 63.1243 21.3598 63.2773 21.1853C63.3137 21.1437 63.3389 21.0922 63.37 21.0285L63.37 21.0284C63.4509 20.8627 63.4509 20.697 63.37 19.0401C63.37 17.3831 63.37 17.2174 63.2891 17.1346C63.2857 17.1293 63.2825 17.1241 63.2795 17.1191L63.2752 17.1118L63.2678 17.0988C63.1477 16.886 63.1477 16.886 55.9267 16.886H49.0498ZM66.6871 16.9688C66.6871 16.9688 66.6546 16.9272 66.6102 17.1265L66.6871 16.9688ZM66.6087 17.1333L66.6062 17.1345L66.6102 17.1265L66.6087 17.1333ZM66.6087 17.1333C66.7689 17.0517 66.8583 17.0517 68.7098 17.0517C70.8133 17.0517 70.8942 17.0517 71.1369 17.3002C71.2178 17.3831 72.3505 18.9572 73.645 20.7798L76.0721 24.0937V20.697C76.0721 17.3831 76.0721 17.3002 76.153 17.2174C76.3957 16.9688 76.3957 16.9688 78.6611 16.9688C80.6837 16.9688 80.7646 16.9688 80.9264 17.0517C80.9482 17.0628 80.9685 17.0706 80.9875 17.0778C81.0062 17.085 81.0236 17.0917 81.0398 17.1006C81.25 17.2166 81.25 17.7137 81.25 24.6737V24.6757C81.25 31.7986 81.25 31.9643 81.1691 32.13L81.1443 32.1642L81.1442 32.1643C81.104 32.2199 81.0713 32.2651 81.0309 32.3018C80.8555 32.4614 80.5349 32.4614 78.8229 32.4614L76.8812 32.2957H76.6384C76.4766 32.2128 75.9103 31.55 73.9686 28.9817L71.5414 25.8335V28.8989C71.4643 32.1353 71.4607 32.1377 71.2506 32.274L71.2505 32.2741C71.2401 32.2808 71.2292 32.2879 71.2178 32.2957C71.1369 32.3785 70.9751 32.3785 68.9525 32.3785C66.6062 32.3785 66.6062 32.3785 66.4444 32.0471C66.3635 31.8814 66.3635 31.7158 66.3635 24.5928V24.5908C66.3635 19.1313 66.5129 17.572 66.6087 17.1333ZM106.249 17.3832C105.278 17.466 104.227 17.7146 103.337 18.2117C101.961 18.8744 100.748 20.1172 100.181 21.4427C99.6151 22.6854 99.3724 24.1767 99.5342 25.7508C99.8578 29.2304 102.285 31.7159 105.845 32.2129C106.492 32.2958 107.867 32.2958 108.596 32.2129C109.069 32.2129 109.413 32.1241 109.849 32.0116L109.849 32.0115C110.009 31.9703 110.18 31.9259 110.375 31.8816L110.861 31.7159V30.6388V29.5618C110.861 29.5618 110.618 29.5618 110.375 29.7275C109.809 29.9761 108.919 30.1417 108.191 30.2246C107.382 30.3074 106.249 30.2246 105.602 30.1417C105.036 29.9761 104.55 29.8104 104.065 29.479C103.499 29.1476 103.256 28.899 102.851 28.4019C102.042 27.4078 101.638 26.2479 101.638 24.8395C101.638 22.2712 103.094 20.2829 105.521 19.6201L105.521 19.6201C105.748 19.5537 105.884 19.5139 106.023 19.4901C106.23 19.4544 106.444 19.4544 106.977 19.4544C107.706 19.4544 108.029 19.4544 108.434 19.5372C108.579 19.5704 108.728 19.6035 108.877 19.6366C109.473 19.7692 110.068 19.9018 110.456 20.0343L110.78 20.2V19.123V18.046L110.375 17.8803C109.89 17.7146 109 17.5489 108.434 17.466C108.231 17.466 107.981 17.4579 107.716 17.4493L107.716 17.4493H107.716C107.133 17.4304 106.477 17.4091 106.088 17.466L106.249 17.3832ZM140.23 19.206C141.201 18.2118 142.576 17.549 143.952 17.3833C144.356 17.2176 145.327 17.3005 145.813 17.3833C148.321 17.9633 150.181 20.0345 150.667 22.8513C150.667 23.1107 150.675 23.4269 150.683 23.7619L150.683 23.7637C150.702 24.4981 150.722 25.3221 150.667 25.8338C150.505 27.1594 150.02 28.4021 149.291 29.3963C148.887 29.9762 148.24 30.639 147.754 30.9704C147.026 31.5503 146.136 31.9645 145.246 32.1302C144.275 32.3788 142.738 32.2959 141.525 31.9645C141.201 31.8817 140.311 31.4675 140.068 31.3018C139.987 31.2189 139.906 31.2189 139.906 31.2189V34.3671V37.5153H137.722V17.8804H139.906V19.5374L140.23 19.206ZM147.026 20.4487C146.622 20.0345 145.813 19.6202 145.246 19.5374L145.165 19.4545C145.018 19.4545 144.827 19.4469 144.618 19.4386C144.136 19.4195 143.562 19.3968 143.224 19.4545C142.806 19.5258 142.508 19.6583 142.073 19.8522C142.002 19.8837 141.927 19.9169 141.848 19.9516C141.201 20.2002 140.716 20.6144 140.23 21.1115L139.906 21.4429V29.1477H140.068C140.473 29.4791 141.12 29.8105 141.767 29.9762C142.576 30.3076 142.9 30.3076 143.79 30.3076C144.518 30.3076 144.68 30.3076 145.003 30.2247C145.813 29.9762 146.46 29.6448 147.026 29.0649C147.754 28.3192 148.24 27.4079 148.482 26.0824C148.563 25.5024 148.563 23.9283 148.482 23.3484C148.24 22.1057 147.754 21.1115 147.026 20.4487ZM169.68 17.3832C169.68 17.3832 168.951 17.466 168.709 17.5489C165.149 18.3774 162.964 21.3599 163.207 25.2537C163.288 27.2421 163.935 28.7333 165.068 29.9761C166.039 30.9702 167.091 31.5502 168.466 31.9644C169.275 32.2129 169.841 32.2129 170.812 32.2129C172.026 32.2129 172.916 31.9644 173.967 31.4673C175.424 30.7217 176.395 29.8104 177.123 28.3191C177.446 27.6563 177.608 26.9935 177.77 26.2479C177.851 25.5851 177.851 24.0939 177.77 23.3482C177.527 21.7741 176.88 20.4486 175.828 19.4544C174.615 18.2117 173.078 17.5489 171.217 17.3832H169.68ZM171.621 19.3715C172.997 19.6201 174.048 20.4486 174.777 21.5256C175.424 22.5197 175.667 23.4311 175.667 24.8395C175.667 25.7508 175.666 26.0822 175.424 26.8278C174.696 29.1476 172.673 30.556 170.246 30.3903C167.738 30.2246 165.877 28.5676 165.472 25.9994C165.392 25.3366 165.392 24.1767 165.472 23.5968C165.553 23.0997 165.796 22.4369 165.958 22.0227C166.686 20.6143 167.981 19.6201 169.518 19.3715C170.084 19.2887 171.136 19.2887 171.621 19.3715ZM116.282 20.8628C117.253 18.7087 118.466 17.8802 120.974 17.466L121.055 17.5489H121.298H121.46V20.0343H121.055C119.518 20.1171 118.547 20.5314 117.657 21.4427C117.01 22.1055 116.686 22.6854 116.363 23.7624C116.039 24.6738 116.039 24.8395 116.039 28.4848V31.7987H114.987H113.936V17.9631H114.987H116.039V19.7029V21.4427L116.282 20.8628ZM22.5128 17.7975H22.0274C20.8138 17.9632 19.6812 18.4603 18.7912 19.1231C18.3058 19.4545 17.5776 20.283 17.254 20.7801C16.7686 21.6085 16.445 22.3542 16.2023 23.4312C16.1213 24.0111 16.1213 24.094 16.1213 25.171C16.1213 26.4137 16.1213 26.7451 16.3641 27.5736C17.0922 30.4733 19.2766 32.3788 22.4319 32.793H25.0209C26.0727 32.7101 27.5289 32.2959 28.5807 31.8817H28.8234V30.639V29.5619L28.2571 29.8933C26.8008 30.639 25.1018 30.9703 23.4028 30.8875C22.6747 30.8875 22.2701 30.8046 21.6229 30.5561C20.0857 29.9762 18.953 28.8163 18.5485 27.0765C18.5161 26.8777 18.4838 26.6523 18.4514 26.427L18.4514 26.427C18.4029 26.0889 18.3543 25.7509 18.3058 25.5024V25.3367H29.9561V25.0053C29.9561 24.5082 29.8752 23.5969 29.7134 23.017C28.9852 20.1173 27.0435 18.1289 24.3737 17.7147H22.5937L22.5128 17.7975ZM24.1309 19.703C25.0209 19.8687 25.8299 20.2001 26.3963 20.7801C27.0435 21.4428 27.5289 22.437 27.6099 23.4312V23.7626H22.9983H18.3058C18.3058 23.5969 18.4676 22.9341 18.6294 22.6027C18.953 21.8571 19.5194 21.1115 20.1666 20.6972C21.2184 19.9516 22.7556 19.6202 24.05 19.7859L24.1309 19.703ZM122.095 18.1286C122.05 18.0202 122.026 17.9629 122.026 17.9629V18.1286H122.095ZM124.858 24.8393C123.528 21.6142 122.38 18.8232 122.095 18.1286H123.159H124.292L126.476 23.5137C127.69 26.4962 128.742 28.9817 128.742 28.9817C128.753 28.9929 128.759 29.0071 128.768 29.009C128.826 29.0211 128.989 28.5284 131.088 23.5137C131.361 22.8428 131.634 22.1624 131.885 21.5363C132.378 20.3068 132.788 19.2864 132.949 18.9571L133.353 18.0457H134.405H135.457C135.405 18.0457 134.662 19.8318 133.543 22.5228C132.908 24.051 132.151 25.8712 131.331 27.8218L127.285 37.515H126.234H125.182C125.211 37.4543 125.49 36.7944 125.844 35.9576C126.456 34.5081 127.293 32.5279 127.447 32.2127L127.69 31.6328L124.858 24.8393Z" fill="black"/>
</svg>
