<svg width="216" height="29" viewBox="0 0 216 29" fill="none" xmlns="http://www.w3.org/2000/svg">
<path fill-rule="evenodd" clip-rule="evenodd" d="M90.5856 20.7158C84.3997 20.7158 79.9009 16.4646 79.9009 10.6192C79.9009 4.7738 84.3997 0.522583 90.666 0.522583C94.0401 0.522583 96.9322 1.73722 98.78 4.01465L98.9406 4.24239L95.6469 7.27898L95.4058 7.05123C94.2008 5.60886 92.5941 4.92562 90.8267 4.92562C87.3722 4.92562 84.9621 7.27898 84.9621 10.6951C84.9621 14.1113 87.3722 16.4646 90.8267 16.4646C92.6744 16.4646 94.2008 15.7814 95.4058 14.339L95.6469 14.1113L98.9406 17.1479L98.78 17.3756C96.9322 19.653 94.0401 20.8677 90.5856 20.8677V20.7158ZM43.1866 20.4122H32.9839V0.826294H42.7046C47.4445 0.826294 50.2562 2.80007 50.2562 6.0644C50.2562 7.81043 49.4529 9.25281 48.0872 10.1638C50.0956 10.9988 51.2203 12.7449 51.2203 14.9464C51.2203 18.4385 48.4085 20.4122 43.267 20.4122H43.1866ZM37.9648 16.5406H42.8653C45.7574 16.5406 46.0787 15.4019 46.0787 14.4909C46.0787 13.1244 45.0344 12.4412 42.8653 12.4412H37.9648V16.5406ZM37.9648 8.64549H42.0619C44.0703 8.64549 45.1147 7.96226 45.1147 6.67171C45.1147 6.21622 45.1147 4.77385 42.0619 4.77385H37.9648V8.64549ZM59.0934 20.4122H54.0322V0.826294H59.0934V20.4122ZM67.9305 20.4122H72.9114V5.00159H79.0973V0.826294H61.7446V5.00159H67.9305V20.4122ZM99.6636 10.6192C99.6636 16.4646 104.243 20.7158 110.509 20.7158C116.775 20.7158 121.354 16.4646 121.354 10.6192C121.354 4.7738 116.775 0.522583 110.509 0.522583C104.243 0.522583 99.6636 4.7738 99.6636 10.6192ZM104.805 10.6192C104.805 7.27898 107.215 4.84971 110.509 4.84971C113.803 4.84971 116.213 7.27898 116.213 10.6192C116.213 13.9595 113.803 16.3887 110.509 16.3887C107.215 16.3887 104.805 13.9595 104.805 10.6192ZM128.825 20.4122H123.764V0.826294H128.825V20.4122ZM146.098 20.4122H150.195V0.826294H145.214V11.758L136.136 0.826294H132.039V20.4122H137.02V9.48055L146.098 20.4122ZM158.068 20.4122H153.007V0.826294H158.068V20.4122ZM160.719 18.4384C162.567 19.8049 165.7 20.7158 168.753 20.7158V20.7918C174.939 20.7918 177.188 17.4515 177.188 14.6427C177.188 10.4287 173.241 9.4967 170.043 8.74133L169.958 8.72135C167.869 8.26586 166.021 7.81038 166.021 6.59575C166.021 5.38111 167.227 4.69788 169.396 4.69788C171.083 4.69788 172.85 5.22928 174.537 6.14026L174.858 6.29209L176.465 2.42045L176.224 2.26862C174.457 1.1299 171.966 0.522583 169.396 0.522583C164.254 0.522583 160.96 2.95185 161.041 6.67166C161.041 10.9616 164.989 11.8938 168.188 12.6493L168.271 12.6689C170.36 13.1244 172.207 13.5799 172.207 14.7945C172.207 16.3128 170.119 16.5405 168.833 16.5405C166.664 16.5405 164.254 15.8573 162.647 14.6427L162.326 14.4149L160.559 18.2866L160.719 18.4384ZM189.56 20.4122H184.579V5.00159H178.393V0.826294H195.746V5.00159H189.56V20.4122ZM197.995 4.5459C197.995 4.92547 198.718 5.22913 198.718 5.22913C199.12 5.22913 199.441 4.92547 199.441 4.5459C199.441 4.16633 199.12 3.86267 198.718 3.86267C198.316 3.86267 197.995 4.16633 197.995 4.5459ZM202.735 5.22934C201.289 5.22934 200.325 4.31836 200.325 3.02782C200.325 1.73727 201.37 0.826294 202.735 0.826294C203.539 0.826294 204.181 1.12995 204.583 1.58544L203.78 2.34458C203.78 2.34458 203.137 1.81318 202.816 1.81318C202.093 1.81318 201.53 2.34458 201.53 3.02782C201.53 3.71105 202.093 4.24245 202.816 4.24245C203.217 4.24245 203.539 4.09062 203.78 3.78696L204.583 4.39428C204.181 4.92568 203.539 5.22934 202.735 5.22934ZM204.984 3.02782C204.984 4.31836 206.029 5.22934 207.475 5.22934C208.921 5.22934 209.965 4.31836 209.965 3.02782C209.965 1.73727 208.921 0.826294 207.475 0.826294C206.029 0.826294 204.984 1.73727 204.984 3.02782ZM206.27 3.02782C206.27 2.34458 206.752 1.81318 207.475 1.81318C208.278 1.81318 208.76 2.34458 208.76 3.02782C208.76 3.71105 208.198 4.24245 207.475 4.24245C206.752 4.24245 206.27 3.71105 206.27 3.02782ZM210.769 5.00162V0.978149V0.902222H211.733L213.259 3.33149L214.786 0.902222H215.75V5.15343H214.706V2.95191L213.581 4.69795H213.018L211.894 3.02783V5.15343H210.769V5.00162ZM32.4219 26.3334C32.4219 26.3076 32.4222 26.2818 32.423 26.2562C32.4637 27.6605 33.6534 28.6868 35.1533 28.6868C35.9567 28.6868 36.5994 28.459 37.0814 28.0035L36.76 27.6999C36.3584 28.1554 35.796 28.3072 35.2337 28.3072C34.0286 28.3072 33.0646 27.4721 33.0646 26.2575C33.0646 25.0429 33.9483 24.2078 35.2337 24.2078C35.796 24.2078 36.3584 24.4356 36.76 24.8151L37.0814 24.5115C36.5994 24.056 35.8763 23.8282 35.1533 23.8282C33.5754 23.8282 32.4624 24.8533 32.423 26.2562C32.4222 26.2315 32.4219 26.2066 32.4219 26.1816V26.3334ZM40.5358 27.1685L41.7409 28.7627V28.6868H42.3032L41.0178 27.0167C41.8212 26.7889 42.2229 26.2575 42.2229 25.4984C42.2229 24.4356 41.4195 23.8282 40.1341 23.8282H38.2061V28.6868H38.7684V27.1685H40.1341H40.5358ZM40.1341 24.3596C41.1785 24.3596 41.7409 24.8151 41.7409 25.5743C41.7409 26.3334 41.1785 26.7889 40.1341 26.7889H38.7684V24.3596H40.1341ZM45.2756 27.0926V28.7627H44.7133V27.0926L42.6245 23.9042H43.1869L44.9543 26.6371L46.7217 23.9042H47.284L45.1953 27.0926H45.2756ZM50.0956 27.2444C51.3809 27.2444 52.1843 26.6371 52.1843 25.5743C52.1843 24.5115 51.3809 23.9042 50.0956 23.9042H48.1675V28.7627H48.7298V27.2444H50.0956ZM50.0152 24.3597C51.0596 24.3597 51.622 24.8151 51.622 25.5743C51.622 26.3334 51.0596 26.7889 50.0152 26.7889H48.6495V24.3597H50.0152ZM54.1126 24.3597H52.3452V23.9042H56.5227V24.3597H54.675V28.7627H54.1126V24.3597ZM59.6558 23.8282C58.049 23.8282 56.9243 24.8911 56.9243 26.3334C56.9243 27.7758 58.049 28.8386 59.6558 28.8386C61.2625 28.8386 62.3872 27.7758 62.3872 26.3334C62.3872 24.8911 61.2625 23.8282 59.6558 23.8282ZM59.6558 24.2837C60.9411 24.2837 61.8248 25.1947 61.8248 26.3334C61.8248 27.5481 60.8608 28.3831 59.6558 28.3831C58.4507 28.3831 57.4867 27.5481 57.4867 26.3334C57.4867 25.1188 58.3704 24.2837 59.6558 24.2837ZM63.1904 26.3334C63.1904 26.3076 63.1908 26.2818 63.1915 26.2562C63.2323 27.6605 64.4219 28.6868 65.9219 28.6868C66.7252 28.6868 67.3679 28.459 67.85 28.0035L67.5286 27.6999C67.1269 28.1554 66.5646 28.3072 66.0022 28.3072C64.7972 28.3072 63.8331 27.4721 63.8331 26.2575C63.8331 25.0429 64.7168 24.2078 66.0022 24.2078C66.5646 24.2078 67.1269 24.4356 67.5286 24.8151L67.85 24.5115C67.3679 24.056 66.6449 23.8282 65.9219 23.8282C64.3439 23.8282 63.2309 24.8533 63.1915 26.2562C63.1908 26.2315 63.1904 26.2066 63.1904 26.1816V26.3334ZM68.8945 23.9042V26.713H69.0552C69.0552 28.0795 69.8586 28.8386 71.144 28.8386C72.4293 28.8386 73.2327 28.0795 73.2327 26.713V23.9042H72.6703V26.713C72.6703 27.8517 72.108 28.3831 71.0636 28.3831C70.0192 28.3831 69.4569 27.8517 69.4569 26.713V23.9042H68.8945ZM78.3742 28.7627L77.1691 27.1685H76.7674H75.4017V28.6868H74.8394V23.8282H76.7674C78.0528 23.8282 78.8562 24.4356 78.8562 25.4984C78.8562 26.2575 78.4545 26.7889 77.6511 27.0167L78.9365 28.6868H78.3742V28.7627ZM78.3742 25.5743C78.3742 24.8151 77.8118 24.3596 76.7674 24.3596H75.4017V26.7889H76.7674C77.8118 26.7889 78.3742 26.3334 78.3742 25.5743ZM82.5519 27.1685L83.757 28.7627V28.6868H84.3193L83.034 27.0167C83.8373 26.7889 84.239 26.2575 84.239 25.4984C84.239 24.4356 83.4356 23.8282 82.1502 23.8282H80.2222V28.6868H80.7845V27.1685H82.1502H82.5519ZM82.1502 24.3596C83.1946 24.3596 83.757 24.8151 83.757 25.5743C83.757 26.3334 83.1946 26.7889 82.1502 26.7889H80.7845V24.3596H82.1502ZM89.2196 28.3072V28.3831H86.1668V26.5612H88.818V26.1057H86.1668V24.3597H89.1393V23.9042H85.6045V28.7627H89.2196V28.3831H89.3L89.2196 28.3072ZM94.8431 28.7627V23.9042H94.2807V27.8517L90.9869 23.9042H90.5049V28.7627H91.0672V24.8151L94.361 28.7627H94.8431ZM96.1289 26.3334C96.1289 26.3076 96.1293 26.2818 96.13 26.2562C96.1708 27.6605 97.3604 28.6868 98.8604 28.6868C99.6637 28.6868 100.306 28.459 100.788 28.0035L100.467 27.6999C100.065 28.1554 99.503 28.3072 98.9407 28.3072C97.7356 28.3072 96.7716 27.4721 96.7716 26.2575C96.7716 25.0429 97.6553 24.2078 98.9407 24.2078C99.503 24.2078 100.065 24.4356 100.467 24.8151L100.788 24.5115C100.306 24.056 99.5834 23.8282 98.8604 23.8282C97.2824 23.8282 96.1694 24.8533 96.13 26.2562L96.1295 26.2363L96.1291 26.2134L96.1289 26.1816V26.3334ZM103.6 28.7627V27.0926H103.52L105.608 23.9042H105.046L103.278 26.6371L101.511 23.9042H100.949L103.037 27.0926V28.7627H103.6ZM113.321 23.9042V28.7627H112.839L109.545 24.8151V28.7627H108.982V23.9042H109.464L112.758 27.8517V23.9042H113.321ZM118.704 28.3831V28.3072L118.784 28.3831H118.704ZM115.651 28.3831H118.704V28.7627H115.088V23.9042H118.623V24.3597H115.651V26.1057H118.302V26.5612H115.651V28.3831ZM127.059 23.9042L125.291 28.7627H124.729L123.202 24.5874L121.676 28.7627H121.114L119.346 23.9042H119.909L121.435 28.0795L122.961 23.9042H123.443L124.97 28.1554L126.496 23.9042H127.059ZM127.782 27.7758L127.541 28.1554V28.2313C127.942 28.6109 128.665 28.8386 129.469 28.8386C130.754 28.8386 131.397 28.1554 131.397 27.4721C131.397 26.5457 130.492 26.3459 129.643 26.1584C128.891 25.9925 128.183 25.8361 128.183 25.1947C128.183 24.6633 128.585 24.2837 129.549 24.2837C130.031 24.2837 130.513 24.3596 130.995 24.6633L131.156 24.2837C130.754 23.9801 130.111 23.8282 129.549 23.8282C128.183 23.8282 127.621 24.5115 127.621 25.1947C127.621 26.1711 128.544 26.3844 129.4 26.5824C130.142 26.7539 130.834 26.9139 130.834 27.5481C130.834 28.0035 130.433 28.3831 129.469 28.3831C128.826 28.3831 127.782 27.7758 127.782 27.7758ZM138.867 28.8386L138.144 28.1554C137.743 28.6109 137.1 28.8386 136.457 28.8386C135.413 28.8386 134.69 28.3072 134.69 27.624C134.69 27.0167 135.011 26.6371 135.975 26.1057C135.493 25.6502 135.333 25.3466 135.333 24.967C135.333 24.3597 135.815 23.9042 136.618 23.9042C137.341 23.9042 137.823 24.2837 137.823 24.8911C137.823 25.3466 137.502 25.7261 136.698 26.1816L138.144 27.5481C138.144 27.5481 138.385 26.9408 138.466 26.6371L138.867 26.7889C138.787 27.2444 138.626 27.624 138.385 27.9276L139.108 28.6109L138.867 28.8386ZM137.823 27.8517L136.297 26.3334C135.493 26.7889 135.252 27.0926 135.252 27.5481C135.252 28.0795 135.734 28.459 136.538 28.459C137.1 28.459 137.582 28.3072 137.903 27.9276L137.823 27.8517ZM135.815 24.8911C135.815 24.8911 135.895 25.3465 136.377 25.802C137.1 25.4225 137.341 25.1188 137.341 24.8151C137.341 24.5115 137.1 24.2078 136.618 24.2078C136.136 24.2078 135.815 24.5115 135.815 24.8911ZM141.76 24.3597H143.527V28.7627H144.09V24.3597H145.937V23.9042H141.76V24.3597ZM150.517 28.3072V28.3831H147.464V26.5612H150.115V26.1057H147.464V24.3597H150.436V23.9042H146.901V28.7627H150.517V28.3831H150.597L150.517 28.3072ZM151.321 26.2562C151.32 26.2818 151.32 26.3076 151.32 26.3334V26.1816C151.32 26.2066 151.32 26.2314 151.321 26.2562ZM151.321 26.2562C151.36 24.8533 152.473 23.8282 154.051 23.8282C154.774 23.8282 155.497 24.056 155.979 24.5115L155.658 24.8151C155.256 24.4356 154.694 24.2078 154.132 24.2078C152.846 24.2078 151.963 25.0429 151.963 26.2575C151.963 27.4721 152.927 28.3072 154.132 28.3072C154.694 28.3072 155.256 28.1554 155.658 27.6999L155.979 28.0035C155.497 28.459 154.855 28.6868 154.051 28.6868C152.551 28.6868 151.362 27.6604 151.321 26.2562ZM161.442 23.9042V28.7627H160.88V26.4853H157.666V28.7627H157.104V23.9042H157.666V26.1057H160.88V23.9042H161.442ZM167.468 28.7627V23.9042H166.905V27.8517L163.611 23.9042H163.129V28.7627H163.692V24.8151L166.986 28.7627H167.468ZM168.753 26.3334C168.753 24.8911 169.878 23.8282 171.484 23.8282C173.091 23.8282 174.216 24.8911 174.216 26.3334C174.216 27.7758 173.091 28.8386 171.484 28.8386C169.878 28.8386 168.753 27.7758 168.753 26.3334ZM173.653 26.3334C173.653 25.1947 172.77 24.2837 171.484 24.2837C170.199 24.2837 169.315 25.1188 169.315 26.3334C169.315 27.5481 170.279 28.3831 171.484 28.3831C172.689 28.3831 173.653 27.5481 173.653 26.3334ZM175.983 23.9042H175.421V28.7627H178.875V28.3072H175.983V23.9042ZM179.277 26.3334C179.277 24.8911 180.402 23.8282 182.009 23.8282C183.616 23.8282 184.74 24.8911 184.74 26.3334C184.74 27.7758 183.616 28.8386 182.009 28.8386C180.402 28.8386 179.277 27.7758 179.277 26.3334ZM184.178 26.3334C184.178 25.1947 183.294 24.2837 182.009 24.2837C180.723 24.2837 179.84 25.1188 179.84 26.3334C179.84 27.5481 180.804 28.3831 182.009 28.3831C183.214 28.3831 184.178 27.5481 184.178 26.3334ZM190.122 26.3334H189.56V27.9276C189.158 28.2313 188.676 28.3072 188.194 28.3072C186.989 28.3072 186.025 27.4721 186.025 26.2575C186.025 25.0429 186.989 24.2078 188.275 24.2078C188.837 24.2078 189.399 24.4356 189.801 24.8151L190.122 24.5115C189.64 24.056 188.998 23.8282 188.194 23.8282C186.588 23.8282 185.463 24.8911 185.463 26.3334C185.463 27.7758 186.588 28.8386 188.194 28.8386C188.917 28.8386 189.64 28.6109 190.122 28.2313V26.3334ZM193.416 28.7627H192.854V27.0926L190.765 23.9042H191.327L193.095 26.6371L194.862 23.9042H195.425L193.336 27.0926H193.416V28.7627ZM0.287109 22.6897L7.19605 28.9906H30.092V0.826294H0.287109V22.6897ZM22.6207 12.9726C22.942 10.9229 21.255 9.86012 19.0055 9.10098H19.0859L19.8089 6.29214L18.0415 5.83665L17.3185 8.56957C17.1176 8.53162 16.9369 8.49366 16.7561 8.4557C16.5753 8.41775 16.3946 8.37979 16.1938 8.34183H15.8724L16.5954 5.60891L14.828 5.15342L14.105 7.96226H13.864C13.5426 7.88634 12.9803 7.73451 12.9803 7.73451L10.4899 7.1272L10.0078 8.94915L11.2932 9.25281C12.0162 9.40463 12.0966 10.2397 12.0966 10.2397L11.2932 13.4281L10.0882 17.8311C10.0078 17.983 9.76682 18.3625 9.28481 18.2107L7.99942 17.9071L7.11572 19.8049L9.44548 20.3363C9.61769 20.3363 9.76682 20.3799 9.90526 20.4204C10.0251 20.4555 10.137 20.4882 10.2488 20.4882C10.4095 20.5641 10.7309 20.64 10.7309 20.64L10.0078 23.4488L11.7752 23.9043L12.4983 21.0955C12.9803 21.2473 13.4623 21.3991 13.9443 21.475L13.2213 24.208L14.9887 24.6635L15.7117 21.8546C18.7645 22.386 21.0139 22.1583 21.978 19.5772C22.7813 17.4516 21.978 16.2369 20.3713 15.4778C21.496 15.1741 22.3797 14.4909 22.6207 12.9726ZM18.5235 18.3625C18.0415 20.2604 14.828 19.5013 13.382 19.1217H13.3016C13.2213 19.0458 12.9803 19.0458 12.9803 19.0458L13.9443 15.326C14.105 15.4019 14.2657 15.4019 14.4263 15.4019C14.5186 15.4248 14.6165 15.4486 14.7188 15.4735C16.3089 15.8599 18.9764 16.5081 18.5235 18.3625ZM14.7766 13.7391L14.7477 13.7318V13.6558H14.4263L15.31 10.3156C15.4707 10.3915 15.5511 10.3915 15.7117 10.3915C16.9971 10.6193 19.5679 11.1507 19.0859 12.9726C18.6077 14.7048 15.9946 14.0461 14.7766 13.7391Z" fill="black"/>
</svg>
