<svg width="196" height="37" viewBox="0 0 196 37" fill="none" xmlns="http://www.w3.org/2000/svg">
<path fill-rule="evenodd" clip-rule="evenodd" d="M32.0362 0.0130957C34.4883 0.189978 36.4543 2.1799 36.631 4.63414C36.8298 7.5748 34.5325 10.0069 31.6607 9.98483C30.269 9.98483 29.0098 9.43206 28.1041 8.50345C27.331 7.70748 26.2927 7.24315 25.1882 7.24315H24.8348C23.7303 7.24315 22.692 7.70748 21.9188 8.50345C21.0131 9.40994 19.754 9.98483 18.3623 9.98483C16.9706 9.98483 15.7114 9.43206 14.8057 8.50345C14.0326 7.70748 12.9943 7.24315 11.8898 7.24315H11.4922C10.3876 7.24315 9.34942 7.70748 8.57625 8.48134L8.53208 8.52557L8.4879 8.56974C7.71473 9.3436 7.25084 10.3828 7.25084 11.4883V11.8863C7.25084 12.9918 7.71473 14.031 8.50999 14.8049C9.41569 15.7114 9.99007 16.9717 9.99007 18.3646C9.99007 19.7575 9.43777 21.0178 8.50999 21.9244C7.71473 22.6982 7.25084 23.7374 7.25084 24.8429V25.2851C7.25084 26.3906 7.71473 27.4298 8.50999 28.2037L8.55417 28.2479C9.32734 29.0439 10.3876 29.464 11.4701 29.464H11.934C13.0164 29.464 14.0547 28.9996 14.8278 28.2258C15.7335 27.3192 16.9927 26.7665 18.3623 26.7665C21.2561 26.7665 23.5535 29.1987 23.3547 32.1393C23.178 34.6156 21.1898 36.6056 18.7378 36.7825C17.1694 36.893 15.7335 36.296 14.7395 35.2569C13.9884 34.4609 12.9723 33.9966 11.8898 33.9966H11.4701C10.3876 33.9966 9.37151 34.483 8.62043 35.2569C7.67056 36.2518 6.32306 36.8488 4.8209 36.8046C2.23632 36.7161 0.115653 34.6156 0.00520117 32.0066C-0.0610697 30.5253 0.535371 29.1766 1.50735 28.2258C2.28051 27.474 2.74441 26.457 2.74441 25.3736V24.865C2.74441 23.7595 2.28051 22.7204 1.48525 21.9465C0.579552 21.04 0.00520117 19.7797 0.00520117 18.3867C0.00520117 16.9938 0.557459 15.7335 1.48525 14.827C2.28051 14.0531 2.74441 13.0139 2.74441 11.9084V11.5326C2.74441 10.4492 2.32469 9.38783 1.52944 8.63608L1.46316 8.56974C-0.569149 6.53563 -0.480787 3.17486 1.70616 1.25127C3.51757 -0.362779 6.27888 -0.406999 8.15654 1.11861C8.31115 1.25127 8.46582 1.40604 8.62043 1.56082C9.37151 2.33467 10.4098 2.75477 11.4922 2.75477H11.8677C12.9723 2.75477 14.0105 2.29045 14.7836 1.49448C15.6893 0.587963 16.9485 0.0130957 18.3402 0.0130957C19.7319 0.0130957 20.991 0.565849 21.8967 1.49448C22.6699 2.29045 23.7082 2.75477 24.8127 2.75477H25.2103C26.2927 2.75477 27.3089 2.29045 28.06 1.5166C29.054 0.49952 30.4678 -0.0974557 32.0362 0.0130957ZM93.5756 6.5036C94.7574 7.68653 94.7574 9.60441 93.5756 10.7873C92.3933 11.9703 90.4774 11.9703 89.2956 10.7873C88.1138 9.60441 88.1138 7.68653 89.2956 6.5036C90.4774 5.32067 92.3933 5.32067 93.5756 6.5036ZM54.6131 26.125C51.0125 26.125 48.7812 22.8969 48.7812 18.4306C48.7812 14.0086 50.659 10.7141 54.5909 10.7141C57.1753 10.7141 58.8763 12.3724 59.1859 14.5613H65.1945C64.8849 11.8417 63.67 9.45385 61.5495 7.86191C59.8264 6.53527 57.4406 5.71723 54.6131 5.71723C47.3674 5.71723 42.6622 11.2005 42.6622 18.4306C42.6622 25.7049 47.5221 31.0334 54.6574 31.0334C58.081 31.0334 60.5772 30.0827 62.433 28.2696C64.0896 26.6778 65.1945 24.4667 65.3488 22.0567H59.3402C59.0755 24.4225 57.308 26.125 54.6131 26.125ZM76.438 12.6376C70.8712 12.6376 67.138 16.6175 67.138 21.8576C67.138 27.0977 70.8712 31.0776 76.438 31.0776C82.0487 31.0776 85.7158 27.0977 85.7158 21.8576C85.7158 16.6175 82.0487 12.6376 76.438 12.6376ZM76.4158 27.1198C74.0078 27.1198 72.7486 25.0194 72.7486 21.8576C72.7486 18.6958 74.0078 16.5511 76.4158 16.5511C78.8238 16.5511 80.1268 18.6958 80.1268 21.8576C80.1051 25.0194 78.8238 27.1198 76.4158 27.1198ZM86.6212 17.0159H88.9404V30.5253H94.4634V13.1024H86.6212V17.0159ZM102.681 15.4899C103.962 13.6105 105.641 12.5935 108.049 12.5935C111.849 12.5935 114.102 15.313 114.102 19.1823V30.5028H108.557V20.3099C108.557 18.4748 107.652 17.2145 105.84 17.2145C104.007 17.2145 102.792 18.7401 102.792 20.8848V30.5028H97.2471V13.102H102.571V15.4899H102.681ZM127.092 6.2038H116.732V30.503H126.716C129.765 30.503 132.217 29.7291 134.117 28.2919C136.834 26.2136 138.336 22.7865 138.336 18.4971C138.336 11.068 133.807 6.2038 127.092 6.2038ZM126.275 25.4619H122.74V11.245H126.341C130.118 11.245 132.261 14.0972 132.261 18.5192C132.239 22.9634 130.207 25.4619 126.275 25.4619ZM148.806 12.7263C151.28 12.7263 153.246 13.5444 154.748 14.8931C156.824 16.7945 157.841 19.8015 157.818 23.3613H145.315C145.669 25.705 146.95 27.1643 149.225 27.1643C150.683 27.1643 151.633 26.5231 152.119 25.4397H157.509C157.133 27.0095 156.117 28.4909 154.593 29.5522C153.135 30.5692 151.368 31.1441 149.159 31.1441C143.415 31.1441 139.881 27.1643 139.881 21.902C139.881 16.7061 143.504 12.7263 148.806 12.7263ZM148.894 16.6398C146.795 16.6398 145.713 17.9664 145.337 20.0448H152.185C151.987 17.9664 150.683 16.6398 148.894 16.6398ZM167.978 19.4937L167.977 19.4936C166.093 19.1719 164.555 18.9092 164.555 17.8336C164.555 16.7502 165.615 16.2417 166.963 16.2417C168.487 16.2417 169.548 16.7281 169.747 18.2758H174.849C174.584 14.8487 171.934 12.704 167.007 12.704C162.898 12.704 159.496 14.6055 159.496 18.2758C159.496 22.3662 162.722 23.1622 165.748 23.6707C165.971 23.709 166.192 23.7452 166.409 23.7808C168.452 24.1156 170.166 24.3966 170.166 25.8154C170.166 26.943 169.106 27.54 167.449 27.54C165.615 27.54 164.467 26.6998 164.246 24.9531H159.011C159.187 28.8003 162.368 31.144 167.471 31.144C172.022 31.144 175.379 29.1762 175.379 25.3732C175.402 20.929 171.801 20.1331 168.73 19.6246C168.475 19.5786 168.224 19.5356 167.978 19.4937ZM194.533 13.1022L188.414 19.6469L195.24 30.5251H188.834L184.659 23.4056L182.98 25.1744V30.5251H177.523V6.2038H182.98V18.9836L188.149 13.1022H194.533ZM18.3186 20.045C19.2458 20.045 19.9974 19.2927 19.9974 18.3646C19.9974 17.4366 19.2458 16.6843 18.3186 16.6843C17.3914 16.6843 16.6397 17.4366 16.6397 18.3646C16.6397 19.2927 17.3914 20.045 18.3186 20.045ZM33.3842 18.3646C33.3842 19.2927 32.6325 20.045 31.7053 20.045C30.7781 20.045 30.0264 19.2927 30.0264 18.3646C30.0264 17.4366 30.7781 16.6843 31.7053 16.6843C32.6325 16.6843 33.3842 17.4366 33.3842 18.3646ZM31.7053 33.4657C32.6325 33.4657 33.3842 32.7133 33.3842 31.7853C33.3842 30.8573 32.6325 30.1049 31.7053 30.1049C30.7781 30.1049 30.0264 30.8573 30.0264 31.7853C30.0264 32.7133 30.7781 33.4657 31.7053 33.4657Z" fill="black"/>
</svg>
