<svg width="222" height="52" viewBox="0 0 222 52" fill="none" xmlns="http://www.w3.org/2000/svg">
<path fill-rule="evenodd" clip-rule="evenodd" d="M31.4392 38.209C28.2731 41.4131 22.9882 43.502 17.2139 43.502C7.80257 43.502 0.321755 38.4548 0 32.286V11.937V11.5364C0 5.20742 7.64169 0 17.2943 0C23.6489 0 29.36 2.56358 32.1754 6.32886H54.618L51.8027 18.0255H40.4608L38.0476 24.5148L50.5961 19.3074L28.3145 51.5133L31.4392 38.209ZM22.3438 41.2254L23.59 36.0335C21.683 36.5053 19.4218 36.7654 17.2943 36.6923C10.2962 36.7724 4.42414 33.9684 1.60878 29.8826V31.8854C1.76965 37.2531 8.60696 41.8997 17.2943 41.8997C18.9446 41.8283 20.7229 41.5656 22.3438 41.2254ZM24.0443 34.1406L25.3776 28.5859C22.9082 29.5162 20.1342 30.0276 17.2943 29.8826C10.2962 30.0428 4.42414 27.3189 1.60878 23.4735V25.0757C1.76965 30.6036 8.60696 35.09 17.2943 35.09C19.5549 35.09 21.8776 34.7193 24.0443 34.1406ZM25.8535 26.6032L27.1526 21.1907C24.2451 22.5107 20.8733 23.4023 17.3748 23.4735C10.3766 23.3132 4.50457 20.5893 1.68922 16.6638V18.266C1.85009 23.874 8.68739 28.3604 17.3748 28.2803C20.4571 28.3534 23.4055 27.6929 25.8535 26.6032ZM30.1644 6.32886H19.788L16.9727 18.0255H27.9123L27.7021 18.9015C24.9514 20.6234 21.2596 21.7279 17.3748 21.8712C8.68739 21.7109 1.85009 17.1444 1.68922 11.4563C1.68922 6.08868 8.68739 1.52217 17.3748 1.52217C22.5228 1.52217 27.349 3.36473 30.1644 6.32886ZM32.4169 43.1013L34.0257 35.0097L33.9452 35.0899L24.6143 39.0956L29.9233 16.5034H18.9836L20.9946 8.01126H52.6071L50.5961 16.5034H39.6564L34.8301 27.7995L45.7698 22.9926L32.4169 43.1013ZM77.7843 14.2603C77.7843 15.5421 77.3821 16.5836 76.5777 17.3046C75.7733 18.0257 74.6472 18.4262 73.1993 18.4262C71.7514 18.4262 70.5448 17.9456 69.7404 17.0643C68.8556 16.183 68.4534 14.9012 68.4534 13.4592V11.0557C68.4534 9.61368 68.936 8.41197 69.7404 7.4506C70.6252 6.56934 71.7514 6.08866 73.1993 6.08866C74.6472 6.08866 75.8537 6.48923 76.6581 7.13014C77.543 7.85117 77.9452 8.89266 77.8647 10.1745H75.532C75.532 9.37334 75.3711 8.81254 74.9689 8.41197C74.5667 8.0114 74.0036 7.85117 73.1993 7.85117C72.3949 7.85117 71.9122 8.17163 71.51 8.73243C71.1078 9.29323 70.8665 10.0143 70.8665 10.9756V13.3791C70.8665 14.2603 71.1078 15.0614 71.51 15.6222C71.9122 16.183 72.5557 16.5035 73.2797 16.5035C74.0036 16.5035 74.5667 16.3433 74.8885 15.9427C75.2102 15.5421 75.4515 14.9813 75.4515 14.1802H77.7843V14.2603ZM91.1371 13.2989C91.1371 14.741 90.6545 16.0228 89.7697 16.9842C88.8848 17.9456 87.5978 18.4262 86.1499 18.4262C84.702 18.4262 83.4954 17.9456 82.5302 16.9842C81.6453 16.0228 81.1627 14.8211 81.1627 13.2989V11.1359C81.1627 9.6938 81.6453 8.49208 82.5302 7.4506C83.415 6.48923 84.702 6.00854 86.1499 6.00854C87.5978 6.00854 88.8848 6.48923 89.7697 7.4506C90.7349 8.41197 91.1371 9.61368 91.1371 11.1359V13.2989ZM88.724 11.1359C88.724 10.1745 88.4826 9.45345 88 8.81254C87.5174 8.25174 86.8739 7.93129 86.0695 7.93129C85.2651 7.93129 84.6216 8.25174 84.1389 8.81254C83.7367 9.37334 83.415 10.1745 83.415 11.1359V13.2989C83.415 14.2603 83.6563 15.0614 84.1389 15.6222C84.5411 16.183 85.2651 16.5035 86.0695 16.5035C86.8739 16.5035 87.5174 16.183 88 15.6222C88.4826 15.0614 88.724 14.2603 88.724 13.2989V11.1359ZM97.4113 18.266H94.9982V6.24889H97.4113V18.266ZM111.408 18.266H108.995L104.168 10.1745V18.266H101.755V6.24889H104.168L108.995 14.3404V6.24889H111.408V18.266ZM123.634 8.09151H120.176V18.266H117.762V8.09151H114.384V6.24889H123.634V8.09151ZM133.689 12.9785H129.185V16.4234H134.494V18.266H126.772V6.24889H134.494V8.09151H129.185V11.1359H133.689V12.9785ZM140.446 16.4234H145.836V18.266H137.953V6.24889H140.366V16.4234H140.446ZM156.212 12.9785H151.708V16.4234H157.017V18.266H149.294V6.24889H157.017V8.09151H151.708V11.1359H156.212V12.9785ZM169.806 16.6637C169.404 17.1444 168.921 17.545 168.117 17.9456C167.393 18.3461 166.428 18.5064 165.221 18.5064C163.773 18.5064 162.567 18.0257 161.682 17.1444C160.797 16.2632 160.315 15.0614 160.315 13.6194V11.0557C160.315 9.61368 160.797 8.41197 161.682 7.53071C162.567 6.64946 163.773 6.16877 165.141 6.16877C166.589 6.16877 167.795 6.56934 168.519 7.21026C169.243 7.85117 169.726 8.81254 169.645 10.0143H167.393C167.393 9.37334 167.232 8.89266 166.83 8.49208C166.428 8.09151 165.945 7.93129 165.221 7.93129C164.497 7.93129 163.934 8.25174 163.452 8.81254C163.049 9.37334 162.808 10.0944 162.808 10.9756V13.5393C162.808 14.4205 163.049 15.2217 163.532 15.7825C164.015 16.3433 164.658 16.6637 165.382 16.6637C165.945 16.6637 166.428 16.6637 166.75 16.5035C167.071 16.4234 167.313 16.2632 167.554 16.1029V13.7796H165.221V12.0972H169.967V16.824L169.806 16.6637ZM176.081 13.4592V18.266H173.667V6.16877H177.85C179.218 6.16877 180.344 6.48923 181.068 7.13014C181.872 7.77106 182.274 8.65231 182.274 9.77391C182.274 10.4148 182.113 10.8955 181.792 11.3762C181.47 11.7768 180.987 12.1773 180.344 12.4978C181.068 12.7381 181.55 13.0586 181.872 13.5393C182.194 14.02 182.355 14.6609 182.355 15.3819V16.2632C182.355 16.2632 182.355 16.9842 182.516 17.3046C182.516 17.7052 182.757 17.9456 182.998 18.1058V18.266H180.505C180.263 18.1058 180.102 17.7853 180.022 17.3848C180.022 17.1845 180.002 16.9842 179.982 16.7839C179.962 16.5836 179.942 16.3833 179.942 16.183V15.3018C179.942 14.741 179.781 14.2603 179.459 13.9398C179.137 13.6194 178.655 13.4592 178.091 13.4592H176.081ZM177.85 11.6165H176.161V8.17163H177.931C178.574 8.17163 179.057 8.33186 179.379 8.65231C179.7 8.97277 179.861 9.37334 179.861 9.93414C179.861 10.4949 179.7 10.8955 179.379 11.216C179.057 11.4563 178.494 11.6165 177.85 11.6165ZM188.629 15.7024H192.514L193.294 18.266H195.868L191.847 6.24889H189.353L185.251 18.266H187.825L188.629 15.7024ZM189.353 13.7796H192.007L190.72 9.53357L189.353 13.7796ZM201.338 13.8597V18.1859H198.925V6.24889H203.591C204.958 6.24889 206.084 6.64946 206.889 7.29037C207.693 8.0114 208.095 8.97277 208.095 10.0944C208.095 11.216 207.693 12.1773 206.889 12.8984C206.084 13.6194 205.039 13.9398 203.591 13.9398H201.419L201.338 13.8597ZM201.338 12.0171H203.51C204.154 12.0171 204.717 11.8569 205.039 11.4563C205.36 11.0557 205.521 10.5751 205.521 10.0944C205.521 9.53357 205.36 9.05288 205.039 8.65231C204.717 8.25174 204.154 8.09151 203.51 8.09151H201.338V12.0171ZM221.287 18.1859H218.874V13.2188H213.967V18.1859H211.554V6.16877H213.967V11.3762H218.874V6.16877H221.287V18.1859ZM71.2686 37.8941H72.797V29.9628H75.5319V28.681H68.5337V29.9628H71.2686V37.8941ZM81.4039 37.8941H82.9322L83.0127 37.814V33.2475C83.0127 31.5651 82.1279 30.6838 80.4386 30.6838C79.956 30.6838 79.5538 30.844 79.1516 31.0043C78.7494 31.2446 78.2668 31.8054 78.2668 31.8054H78.1863V30.5236V28.04H76.7384V37.814H78.1863V34.3691C78.2668 33.4878 78.3472 32.927 78.669 32.5264C78.9907 32.1259 79.3929 31.9656 80.0364 31.9656C80.5191 31.9656 80.8408 32.1259 81.0821 32.3662C81.3235 32.6065 81.4039 33.0071 81.4039 33.5679V37.8941ZM85.5063 37.0128C86.1498 37.6537 86.9542 37.9742 88.0803 37.9742L87.9999 38.0543C88.2656 38.0543 88.5313 38.03 88.7701 38.0082C88.9652 37.9904 89.1423 37.9742 89.2869 37.9742C89.6891 37.8941 90.413 37.5736 90.413 37.5736V36.3719C90.2927 36.4198 90.1796 36.4749 90.0694 36.5286C89.8112 36.6544 89.5688 36.7725 89.2869 36.7725C88.9652 36.8526 88.563 36.8526 88.1608 36.8526C87.5977 36.8526 87.0346 36.6924 86.7129 36.2918C86.3911 35.9713 86.1498 35.4105 86.1498 34.7696H90.8152V33.9685C90.8152 32.927 90.5739 32.206 90.0109 31.6452C89.5282 31.0844 88.7238 30.7639 87.839 30.7639C86.8737 30.7639 86.0694 31.0844 85.5063 31.7253C84.9432 32.3662 84.6215 33.2475 84.6215 34.3691C84.6215 35.4907 84.8628 36.3719 85.5063 37.0128ZM86.7129 32.2861C86.9542 32.0457 87.3564 31.8855 87.839 31.8855C88.3216 31.8855 88.7238 31.9656 88.9652 32.2861C89.2065 32.5264 89.3673 33.0071 89.3673 33.5679H86.2302C86.3107 33.0071 86.4715 32.5264 86.7129 32.2861ZM97.6525 31.9656H99.2613V30.844H97.5721V30.4435C97.5721 30.0429 97.6525 29.8026 97.8134 29.5622C97.9743 29.3219 98.2156 29.2418 98.5374 29.2418C98.8591 29.2418 99.5831 29.402 99.5831 29.402L99.9853 28.2804C99.5026 28.04 98.9396 28.04 98.4569 28.04C97.6525 28.04 97.0895 28.2003 96.6873 28.6008C96.2851 29.0014 96.1242 29.6423 96.1242 30.4435V30.844L94.9981 31.2446V31.9656H96.1242V37.814H97.6525V31.9656ZM105.214 36.9327L105.455 37.814L105.536 37.8941H106.742V30.9241H105.214V34.4492C105.133 35.3304 105.053 35.8912 104.731 36.2918C104.409 36.6924 104.007 36.8526 103.364 36.8526C102.881 36.8526 102.559 36.6924 102.318 36.452C102.077 36.1316 101.996 35.8111 101.996 35.2503V30.9241H100.468V35.4907C100.468 36.3719 100.709 37.0128 101.111 37.4134C101.594 37.814 102.157 38.0543 103.042 38.0543C103.525 38.0543 103.927 37.8941 104.329 37.7339C104.731 37.4935 105.214 36.9327 105.214 36.9327ZM112.453 36.5321C112.051 36.6924 111.327 36.6924 111.327 36.6924H111.247C111.005 36.6924 110.684 36.6123 110.603 36.452C110.362 36.2918 110.362 36.0515 110.362 35.6509V31.8855H112.373V30.7639H110.362V29.2418H109.477L108.994 30.6838L107.949 31.2446V31.8855H108.914V35.6509C108.914 37.0929 109.638 37.814 111.005 37.814H111.81C112.051 37.814 112.453 37.6537 112.453 37.6537V36.5321ZM118.486 36.9327L118.728 37.814L118.808 37.8941H120.015V30.9241H118.486V34.4492C118.406 35.3304 118.325 35.8912 118.004 36.2918C117.682 36.6924 117.28 36.8526 116.636 36.8526C116.153 36.8526 115.832 36.6924 115.59 36.452C115.349 36.1316 115.269 35.8111 115.269 35.2503V30.9241H113.74V35.4907C113.74 36.3719 113.982 37.0128 114.384 37.4134C114.866 37.814 115.43 38.0543 116.314 38.0543C116.797 38.0543 117.199 37.8941 117.601 37.7339C118.004 37.4935 118.486 36.9327 118.486 36.9327ZM126.289 30.6838H125.565L125.484 30.6037C125.002 30.6037 124.6 30.7639 124.278 31.0043C123.956 31.2446 123.634 31.5651 123.393 31.9656L123.232 30.7639H122.026V37.7339H123.473V34.1287C123.473 33.4878 123.634 33.0071 124.036 32.6065C124.439 32.206 124.921 32.0457 125.484 32.0457H126.128L126.289 30.6838ZM127.817 36.9327C128.461 37.5736 129.265 37.8941 130.391 37.8941L130.311 37.9742C130.563 37.9742 130.793 37.9523 131.013 37.9314C131.214 37.9123 131.406 37.8941 131.598 37.8941C132 37.814 132.724 37.4935 132.724 37.4935V36.2918C132.604 36.3397 132.49 36.3948 132.38 36.4485C132.122 36.5743 131.88 36.6924 131.598 36.6924C131.276 36.7725 130.874 36.7725 130.472 36.7725C129.909 36.7725 129.345 36.6123 129.024 36.2117C128.702 35.8912 128.461 35.3304 128.461 34.6895H133.126V33.8884C133.126 32.8469 132.885 32.1259 132.322 31.5651C131.839 31.0043 131.035 30.6838 130.15 30.6838C129.185 30.6838 128.38 31.0043 127.817 31.6452C127.254 32.2861 126.932 33.1674 126.932 34.2889C126.932 35.4105 127.174 36.2918 127.817 36.9327ZM129.024 32.206C129.265 31.9656 129.667 31.8054 130.15 31.8054C130.632 31.8054 130.954 31.8855 131.276 32.206C131.517 32.4463 131.678 32.927 131.678 33.4878H128.541C128.622 32.927 128.702 32.5264 129.024 32.206ZM143.503 36.9327C144.066 36.2918 144.388 35.4105 144.388 34.2889L144.468 34.2088C144.468 33.0872 144.146 32.206 143.583 31.5651C142.94 30.9242 142.135 30.6037 141.17 30.6037C140.044 30.6037 139.239 30.9242 138.676 31.5651C138.113 32.206 137.792 33.0872 137.792 34.2088C137.792 34.9299 137.952 35.5708 138.194 36.1316C138.435 36.6924 138.757 37.0929 139.32 37.4134C139.883 37.7339 140.446 37.8941 141.09 37.8941C142.135 37.8941 142.94 37.5736 143.503 36.9327ZM141.09 36.6924C139.883 36.6924 139.32 35.8912 139.32 34.2889C139.32 33.4878 139.4 32.927 139.722 32.5264C140.044 32.1259 140.446 31.8855 141.09 31.8855C142.296 31.8855 142.859 32.6867 142.859 34.2889C142.859 35.8912 142.296 36.6924 141.09 36.6924ZM147.927 31.9656H149.536V30.844H147.846V30.4435C147.846 30.0429 147.927 29.7224 148.088 29.5622C148.249 29.3219 148.49 29.2418 148.812 29.2418C149.133 29.2418 149.857 29.402 149.857 29.402L150.26 28.2804C149.777 28.04 149.214 28.04 148.731 28.04C147.927 28.04 147.364 28.2003 146.962 28.6008C146.559 29.0014 146.398 29.6423 146.398 30.4435V30.844L145.272 31.2446V31.9656H146.398V37.814H147.927V31.9656ZM158.545 37.814H160.073L159.993 37.7339H160.073V34.0486C160.073 33.2475 160.234 32.7668 160.475 32.3662C160.797 31.9656 161.199 31.8054 161.762 31.8054C162.245 31.8054 162.486 31.9656 162.728 32.206C162.969 32.5264 163.049 32.8469 163.049 33.4077V37.7339H164.497V33.1673C164.497 32.2861 164.336 31.6452 163.934 31.2446C163.532 30.844 162.969 30.6037 162.084 30.6037C161.601 30.6037 161.199 30.7639 160.797 30.9241C160.395 31.0844 159.912 31.7253 159.912 31.7253H159.832C159.43 31.0043 158.706 30.6037 157.66 30.6037C157.258 30.6037 156.856 30.6838 156.453 30.844C156.051 31.0844 155.569 31.6452 155.569 31.6452L155.327 30.7639H154.121V37.7339H155.569V34.2889C155.569 33.4077 155.729 32.8469 155.971 32.4463C156.292 32.0457 156.695 31.8855 157.258 31.8855C157.74 31.8855 158.062 32.0457 158.223 32.2861C158.464 32.6065 158.545 32.927 158.545 33.4878V37.814ZM171.898 36.9327C172.461 36.2918 172.782 35.4105 172.782 34.2889L172.863 34.2088C172.863 33.0872 172.541 32.206 171.978 31.5651C171.335 30.9242 170.53 30.6037 169.565 30.6037C168.439 30.6037 167.634 30.9242 167.071 31.5651C166.508 32.206 166.186 33.0872 166.186 34.2088C166.186 34.9299 166.347 35.5708 166.589 36.1316C166.83 36.6924 167.232 37.0929 167.715 37.4134C168.278 37.7339 168.841 37.8941 169.484 37.8941C170.53 37.8941 171.335 37.5736 171.898 36.9327ZM169.484 36.6924C168.278 36.6924 167.715 35.8912 167.715 34.2889C167.715 33.4878 167.795 32.927 168.117 32.5264C168.439 32.1259 168.841 31.8855 169.484 31.8855C170.691 31.8855 171.254 32.6867 171.254 34.2889C171.254 35.8912 170.691 36.6924 169.484 36.6924ZM179.137 37.814H180.665V37.6537V33.1673C180.665 31.4849 179.861 30.6037 178.172 30.6037C177.689 30.6037 177.287 30.6838 176.885 30.844C176.483 31.0844 176 31.6452 176 31.6452L175.759 30.7639H174.552V37.7339H176V34.2889C176 33.4077 176.161 32.8469 176.402 32.4463C176.643 32.0457 177.126 31.8855 177.77 31.8855C178.252 31.8855 178.574 32.0457 178.815 32.2861C179.057 32.5264 179.137 32.927 179.137 33.4878V37.814ZM183.239 36.9327C183.883 37.5736 184.687 37.8941 185.814 37.8941L185.733 37.9742C185.985 37.9742 186.216 37.9523 186.436 37.9314C186.636 37.9123 186.828 37.8941 187.02 37.8941C187.422 37.814 188.146 37.4935 188.146 37.4935V36.2918C188.033 36.337 187.919 36.3886 187.808 36.4394C187.523 36.5685 187.251 36.6924 187.02 36.6924C186.698 36.7725 186.296 36.7725 185.894 36.7725C185.331 36.7725 184.768 36.6123 184.446 36.2117C184.124 35.8912 183.883 35.3304 183.883 34.6895H188.548V33.8884C188.548 32.8469 188.307 32.1259 187.744 31.5651C187.261 31.0043 186.457 30.6838 185.572 30.6838C184.607 30.6838 183.803 31.0043 183.239 31.6452C182.676 32.2861 182.355 33.1674 182.355 34.2889C182.355 35.4105 182.596 36.2918 183.239 36.9327ZM184.366 32.206C184.607 31.9656 185.009 31.8054 185.492 31.8054C185.974 31.8054 186.377 31.8855 186.618 32.206C186.859 32.4463 187.02 32.927 187.02 33.4878H183.883C183.963 32.927 184.044 32.5264 184.366 32.206ZM188.89 30.844H188.87L188.79 30.6037L188.89 30.844ZM188.89 30.844L191.686 37.5736L191.444 38.2145C191.122 39.0958 190.64 39.4964 189.916 39.4964H189.112V40.6981C189.433 40.7782 189.755 40.7782 190.077 40.7782C191.364 40.7782 192.249 40.0572 192.812 38.6151L195.788 30.7639H194.179C193.945 31.4446 193.734 32.0545 193.548 32.5924C192.969 34.2703 192.631 35.248 192.57 35.4907C192.41 35.8912 192.329 36.3719 192.329 36.3719C192.329 35.8912 192.168 35.3304 191.927 34.7696L190.479 30.844H188.89Z" fill="black"/>
</svg>
