<svg width="206" height="50" viewBox="0 0 206 50" fill="none" xmlns="http://www.w3.org/2000/svg">
<path fill-rule="evenodd" clip-rule="evenodd" d="M12.793 0.116699H36.7943L48.8373 12.3931H24.836L24.7512 12.4801V12.3931L12.794 0.117715L24.7512 12.4801H0.75L12.793 0.116699ZM24.7512 37.1201H48.7524L36.7942 49.3964L12.7082 49.3965L0.75 37.1199V12.4801L24.6664 12.4802L12.7505 24.7131L12.793 24.7565V24.8437L24.7512 37.1201ZM36.7943 24.7567L36.7094 24.7565L24.7512 12.4801L48.7524 12.4802L36.7943 24.7567ZM36.7943 24.7567H36.8791L48.8373 37.033H24.836L36.7943 24.7567ZM64.1035 28.7617C63.7642 29.1099 63.2554 29.2841 62.6617 29.2841L62.5769 29.3711C61.7288 29.3711 61.0503 29.0229 60.7111 28.3263C60.3718 27.5427 60.2022 26.4979 60.2022 25.1919V24.8437C60.1174 23.7989 60.287 22.7541 60.7111 21.7963C61.0503 21.0127 61.644 20.6645 62.5769 20.6645C63.2554 20.6645 63.6794 20.9257 64.0187 21.361C64.3579 21.8834 64.5275 22.5799 64.5275 23.1894L68.9376 23.1023C69.0225 21.4481 68.4288 19.7067 67.2414 18.5749C66.0541 17.443 64.5275 16.9206 62.5769 16.9206C60.287 16.9206 58.506 17.6171 57.2338 19.0973C55.9617 20.5774 55.368 22.4929 55.368 24.8437V25.1919C55.1984 27.2815 55.9617 29.2841 57.2338 30.9383C58.506 32.3314 60.287 33.115 62.6617 33.115C64.3579 33.115 65.9693 32.5926 67.2414 31.4607C68.4288 30.4159 69.1073 28.8487 69.0225 27.1945H64.6123C64.6123 27.891 64.4427 28.4134 64.1035 28.7617ZM77.8427 21.361H79.6237L80.1326 16.9206C79.6237 16.7465 79.1997 16.7465 78.7756 16.7465C78.0972 16.7465 77.4187 17.0077 76.9098 17.443C76.3161 17.9654 75.8921 18.5749 75.6377 19.3585L75.468 17.0077H70.9731V32.7667H75.7225V22.4058C75.8921 22.0575 76.1465 21.7963 76.4858 21.6222C76.825 21.4481 77.3339 21.361 77.8427 21.361ZM88.7832 25.8885L88.6984 25.8014L88.5288 25.7143L86.1541 16.9206H81.0655L86.4085 32.8538L86.0693 33.8986C85.8997 34.3339 85.6453 34.6822 85.306 34.9434C84.9668 35.2046 84.4579 35.2916 83.6946 35.2916L83.4402 35.2046H83.1858L82.5921 38.6872C83.1858 38.8614 83.6098 38.9484 83.8643 38.9484C84.1187 39.0355 84.4579 39.0355 84.882 39.0355C86.4934 39.0355 87.6807 38.6872 88.444 37.9036C89.2073 37.12 89.801 36.1623 90.3098 35.0304L96.4162 17.0077H91.3275L88.7832 25.8885ZM106.509 21.7093C106.933 22.4929 107.102 23.6247 107.102 24.9307L107.017 25.0178V25.279C107.102 26.3238 106.933 27.2815 106.509 28.2393C106.169 28.9358 105.576 29.2841 104.728 29.2841C104.304 29.2841 103.795 29.197 103.371 29.0229C103.031 28.8487 102.522 28.2393 102.522 28.2393V21.6222C102.692 21.2739 103.031 20.9257 103.371 20.7515C103.71 20.5774 104.219 20.4903 104.728 20.4903C105.491 20.4903 106.169 20.9257 106.509 21.7093ZM110.325 30.8513C111.343 29.4582 111.852 27.5427 111.852 25.1919V25.0178C111.936 22.9282 111.428 20.8386 110.325 19.0973C109.307 17.6171 107.781 16.8335 105.915 16.8335C104.473 16.7465 103.116 17.5301 102.353 18.8361L102.183 17.0947H97.6883V38.7743H102.438V31.3737C103.286 32.4184 104.558 33.0279 105.915 33.0279C107.696 33.0279 109.307 32.2443 110.325 30.8513ZM119.654 17.0077V13.0897L119.569 13.1767H114.735V17.0947H112.615V20.4903H114.735V27.7169C114.735 29.6323 115.159 30.9383 116.007 31.809C116.771 32.6797 117.958 33.115 119.569 33.115C120.587 33.115 121.605 33.0279 122.538 32.7667L122.198 29.1099C121.774 29.197 121.35 29.197 120.841 29.197C120.587 29.197 120.248 29.1099 119.993 28.8487C119.739 28.5875 119.654 28.1522 119.654 27.6298V20.4033H122.283V17.0077H119.654ZM128.814 28.1522C128.39 27.3686 128.22 26.3238 128.22 25.0178V24.6695C128.22 23.4506 128.39 22.4058 128.814 21.6222C129.238 20.8386 129.916 20.4903 130.849 20.4903C131.782 20.4903 132.46 20.8386 132.885 21.6222C133.309 22.5799 133.478 23.6247 133.478 24.6695V25.0178C133.478 26.3238 133.309 27.3686 132.885 28.1522C132.46 28.9358 131.782 29.2841 130.849 29.2841C129.916 29.2841 129.238 28.9358 128.814 28.1522ZM125.421 19.0102C124.064 20.5774 123.386 22.667 123.471 24.7566H123.386V25.1049C123.301 27.1945 123.979 29.2841 125.336 30.8513C126.693 32.2443 128.559 33.0279 130.849 33.0279C133.139 33.0279 135.005 32.3314 136.277 30.8513C137.549 29.3711 138.228 27.4557 138.228 25.1049V24.7566C138.312 22.667 137.634 20.5774 136.277 19.0102C135.005 17.5301 133.139 16.7465 130.849 16.7465C128.559 16.7465 126.693 17.5301 125.421 19.0102ZM144.85 17.0947L144.843 17.0077L145.012 17.0947H144.85ZM144.85 17.0947H140.517V32.8538H145.267V21.5351C145.776 20.9257 146.539 20.5774 147.302 20.5774C148.066 20.5774 148.574 20.7515 148.914 21.0998C149.253 21.4481 149.423 22.1446 149.423 23.0153V32.7667H154.172V23.0153C154.172 20.8386 153.748 19.2714 152.9 18.2266C152.052 17.2689 150.864 16.7465 149.338 16.7465C148.49 16.6594 147.642 16.9206 146.878 17.3559C146.115 17.7913 145.521 18.4007 145.012 19.1843L144.85 17.0947ZM161.89 21.2739C162.229 20.7515 162.738 20.4903 163.416 20.4903C164.18 20.4903 164.604 20.6645 164.943 21.0998C165.282 21.5351 165.452 22.1446 165.452 22.9282V23.2765H161.296C161.381 22.4058 161.55 21.7963 161.89 21.2739ZM158.328 30.8513C159.685 32.3314 161.466 33.0279 163.755 33.0279V33.115C164.943 33.115 166.045 32.9408 167.148 32.5926C168.081 32.2443 169.014 31.809 169.777 31.2866L168.674 28.3263C167.317 29.0229 165.876 29.2841 164.434 29.2841C163.586 29.2841 162.823 29.0229 162.314 28.5005C161.72 27.9781 161.466 27.2815 161.296 26.4109H170.116V23.7989C170.201 21.9705 169.607 20.055 168.335 18.6619C167.148 17.3559 165.536 16.7465 163.416 16.7465C161.126 16.7465 159.43 17.5301 158.158 19.0102C156.886 20.4903 156.292 22.4058 156.292 24.8437V25.3661C156.207 27.3686 156.971 29.3711 158.328 30.8513ZM185.382 26.1497H185.297H185.212L182.583 17.0077H179.53L176.986 26.1497H176.901L175.205 17.0077H170.795L174.442 32.7667H178.512L181.057 24.4083H181.142L183.686 32.7667H187.757L191.404 17.0077H186.993L185.382 26.1497ZM200.563 27.2815C200.902 27.6298 201.157 28.3263 201.157 28.3263V28.4134C201.157 28.9358 200.987 29.2841 200.648 29.4582C200.309 29.7194 199.8 29.8065 199.206 29.8065C198.443 29.8065 197.849 29.6323 197.425 29.2841C197.001 29.0229 196.747 28.5005 196.747 27.7169L192.421 27.8039C192.421 29.1099 193.015 30.4159 194.202 31.4607C195.39 32.5926 197.001 33.115 199.121 33.115C200.818 33.202 202.514 32.6797 203.956 31.7219C205.228 30.8513 205.821 29.6323 205.821 28.2393C205.906 26.9333 205.397 25.8014 204.464 25.0178C203.192 24.1471 201.835 23.6247 200.309 23.3635C199.461 23.2765 198.697 23.0153 197.934 22.5799C197.595 22.3187 197.34 21.9705 197.34 21.5351C197.34 21.0998 197.51 20.7515 197.849 20.4903C198.188 20.1421 198.612 20.055 199.121 20.055C199.8 20.055 200.224 20.2291 200.563 20.5774C200.902 20.9257 201.072 21.361 201.072 21.9705L205.737 21.8834C205.737 20.4033 205.058 19.0102 203.956 18.2266C202.683 17.2689 201.072 16.8335 199.037 16.8335C197.171 16.8335 195.559 17.2689 194.457 18.2266C193.354 19.0102 192.761 20.3162 192.761 21.7093C192.761 22.9282 193.185 24.0601 194.118 24.8437C195.305 25.7143 196.747 26.2367 198.188 26.4979C199.037 26.585 199.8 26.8462 200.563 27.2815Z" fill="black"/>
</svg>
