<svg width="199" height="48" viewBox="0 0 199 48" fill="none" xmlns="http://www.w3.org/2000/svg">
<path fill-rule="evenodd" clip-rule="evenodd" d="M0.0917783 33.7903C0.136386 34.4055 0.180993 35.0206 0.180993 35.5919V35.6797H0.894711C1.11775 35.3722 1.29617 35.0866 1.4746 34.8009C1.65303 34.5153 1.83146 34.2297 2.0545 33.9221C5.19537 29.4936 8.42127 25.0232 11.6148 20.5976L11.6154 20.5967C13.0479 18.6116 14.4739 16.6355 15.8828 14.6762C16.1504 14.4126 16.7749 13.9732 16.7749 13.9732H24.9827C18.8269 22.4976 12.7603 30.9342 6.78289 39.2828C6.78289 39.3707 6.96132 39.5465 6.96132 39.5465C8.60006 40.4327 10.2504 41.3418 11.9123 42.2572L11.9128 42.2575L11.9135 42.2579C14.8655 43.8839 17.8539 45.5301 20.8788 47.1042C21.3249 47.3679 22.217 47.3679 22.6631 47.1042C26.4793 44.9025 30.3288 42.7335 34.1912 40.5573L34.1924 40.5566L34.1934 40.5561L34.1936 40.5559C36.6511 39.1713 39.1139 37.7837 41.5767 36.3828C42.2904 35.9434 42.7365 35.2403 42.7365 34.3615C42.7642 33.6516 42.8005 32.9247 42.8374 32.1861C42.9193 30.5475 43.0041 28.8514 43.0041 27.1553C42.9742 25.7431 42.9543 24.321 42.9344 22.8957V22.8956V22.8954V22.8953V22.8952V22.895V22.8949C42.8949 20.0631 42.8551 17.2184 42.7365 14.4126C42.7365 13.5338 42.6472 12.8307 42.4688 11.7762C42.1119 12.2156 42.0227 12.3035 41.8443 12.4792C38.365 17.4225 34.7351 22.514 31.1052 27.6055C29.8952 29.3028 28.6852 31 27.4807 32.6918C27.0346 33.307 26.5886 33.5706 25.8749 33.5706H19.273C19.1391 33.5706 18.983 33.5267 18.8269 33.4827C18.6708 33.4388 18.5146 33.3948 18.3808 33.3948C23.4784 26.1252 28.6408 18.9194 33.7574 11.7775L33.7582 11.7764L33.7586 11.7759L33.7643 11.768L33.783 11.7419L33.8187 11.6921L33.8254 11.6827C34.6858 10.4817 35.5449 9.28254 36.4022 8.08519C36.2933 7.9779 36.2287 7.88517 36.1784 7.81291C36.105 7.7076 36.0619 7.64578 35.9561 7.64578C34.4395 6.82556 32.9228 5.98581 31.4062 5.14606C28.3729 3.46656 25.3396 1.78707 22.3063 0.263802C21.6818 0.175921 20.8788 0.175921 20.2543 0.439564C17.6161 1.87077 14.9779 3.3504 12.3397 4.83002L12.3397 4.83004L12.3396 4.83007C8.82202 6.80288 5.30444 8.7757 1.78686 10.6337C0.448637 11.4247 0.00256348 12.3913 0.00256348 13.7096V31.9888C0.00256348 32.56 0.0471709 33.1751 0.0917783 33.7903ZM162.819 28.6492C162.909 26.0128 161.927 24.1673 159.429 23.1127C159.477 23.0892 159.518 23.072 159.557 23.056C159.662 23.0122 159.745 22.9778 159.875 22.8491C161.838 21.7945 162.552 19.949 162.106 17.9278C161.66 15.9944 160.143 14.852 158.269 14.5883C156.905 14.3083 155.432 14.2781 153.943 14.2476C153.095 14.2302 152.241 14.2127 151.4 14.1489H146.85C146.672 14.5004 146.672 14.7641 146.672 14.7641V32.2523C146.672 33.1311 147.118 33.1311 147.742 33.1311H155.504C156.664 33.1311 157.645 33.1311 158.716 32.8675C160.946 32.2523 162.641 30.4947 162.819 28.6492ZM153.088 29.392L153.088 29.392L153.088 29.392C152.474 29.3722 151.853 29.3523 151.221 29.3523C151.222 28.0633 151.225 26.7725 151.4 25.3976C153.184 25.3976 155.058 25.4855 156.842 25.6613C157.823 25.7492 158.448 26.4522 158.448 27.5068C158.269 28.4735 157.556 29.1765 156.664 29.3523C155.48 29.4688 154.297 29.4308 153.088 29.392ZM152.827 21.7457C152.292 21.7262 151.757 21.7066 151.221 21.7066H151.132V17.9278C151.671 17.9278 152.22 17.908 152.765 17.8884C153.845 17.8494 154.912 17.811 155.861 17.9278C156.753 18.1035 157.645 18.5429 157.645 19.6854C157.645 20.8278 157.199 21.5309 156.039 21.7066C154.968 21.8238 153.898 21.7848 152.827 21.7457ZM110.094 14.3249C110.897 16.8736 111.678 19.4004 112.458 21.9271L112.458 21.9274L112.459 21.9279L112.459 21.9285L112.459 21.9291L112.459 21.9297C113.239 24.4552 114.02 26.9808 114.822 29.5283H115.09C115.893 26.9798 116.674 24.4532 117.454 21.9266C118.235 19.4 119.015 16.8735 119.818 14.3249H122.584C121.965 16.0714 121.385 17.8179 120.808 19.5558C120.136 21.578 119.467 23.5886 118.748 25.5737C118.486 26.3797 118.2 27.1738 117.912 27.9735C117.415 29.3537 116.913 30.7503 116.517 32.2526C116.288 33.3836 115.467 33.3501 114.675 33.3178C114.544 33.3125 114.414 33.3072 114.287 33.3072C113.573 33.3072 113.127 33.0435 112.949 32.2526C111.611 27.5949 110.183 23.113 108.577 18.1038C107.953 19.6857 107.507 21.1796 107.15 22.41C106.615 24.0797 106.102 25.7055 105.589 27.3313C105.076 28.9571 104.563 30.5829 104.027 32.2526C103.849 32.9556 103.403 33.3072 102.689 33.3072C102.468 33.2526 102.212 33.2743 101.956 33.2959C101.388 33.344 100.822 33.3919 100.637 32.6041C99.6112 29.5722 98.6298 26.5623 97.6485 23.5524C96.6671 20.5425 95.6857 17.5326 94.6598 14.5007C94.7643 14.5007 94.8076 14.4404 94.8435 14.3904C94.8688 14.3551 94.8905 14.3249 94.9274 14.3249C97.4254 14.1492 97.6039 14.1492 98.3176 16.5219C98.4772 17.0251 98.6368 17.527 98.7961 18.0279C99.9725 21.7268 101.132 25.3738 102.154 29.0889C102.154 29.1727 102.194 29.2366 102.247 29.3186C102.304 29.4085 102.375 29.5202 102.421 29.7041C103.162 27.2252 103.929 24.8002 104.694 22.3843L104.694 22.3841L104.694 22.384L104.694 22.3839L104.694 22.3837L104.694 22.3835C105.312 20.4315 105.927 18.4855 106.525 16.5219C106.686 16.0863 106.805 15.732 106.901 15.4444C107.116 14.8024 107.219 14.4927 107.434 14.3531C107.633 14.223 107.929 14.2405 108.501 14.2743C108.871 14.2962 109.356 14.3249 110.005 14.3249H110.094ZM197.435 28.4737L197.434 28.4733C197.033 28.034 196.632 27.5948 196.186 27.1555C191.904 30.0556 189.227 30.0556 186.908 27.3313C185.123 25.2222 185.302 21.7069 187.175 19.6857C188.067 18.6311 189.227 18.1038 190.565 17.9281C192.796 17.5765 194.58 18.6311 196.186 20.213C196.389 19.9729 196.592 19.7374 196.793 19.5044L196.796 19.5008L196.798 19.4991L196.798 19.4982C197.478 18.7097 198.134 17.9495 198.684 17.1371C194.937 12.9189 187.889 12.831 183.963 16.6977C180.127 20.6524 180.127 27.3313 184.856 31.198C188.959 34.5375 195.205 34.0102 198.684 29.792C198.238 29.3527 197.837 28.9134 197.435 28.4742L197.435 28.4737ZM60.4904 19.0706V33.1315H57.814V14.4129C59.5983 13.9735 60.758 14.4129 61.7394 15.819C63.6048 18.5456 65.6326 21.2723 67.7406 24.1068L67.7407 24.1069L67.7409 24.1073C68.7581 25.475 69.794 26.8679 70.8393 28.298V14.2371H73.5158V32.8678C71.6423 33.483 71.1962 33.1315 70.1256 31.7254C69.6489 31.0814 69.1743 30.4416 68.7018 29.8045L68.6828 29.779L68.6606 29.7491L68.6534 29.7393C66.0476 26.2264 63.505 22.7987 61.0257 19.2463C60.9406 19.2463 60.8758 19.2063 60.7925 19.155C60.7012 19.0986 60.5878 19.0286 60.4012 18.9827L60.4904 19.0706ZM81.4557 24.8704H90.5556L90.4664 24.7825V24.7824C90.4664 23.9036 90.4664 23.1127 90.6448 22.0582H81.5449V16.4338H91.8046V14.1489H78.7793V32.9554H91.9831V30.4947H81.4557V24.8704ZM180.305 14.1491L180.484 14.4127C180.662 16.8148 179.532 18.0159 177.094 18.0159H174.863V32.9556H170.492V18.0159H165.942C164.871 18.0159 164.604 17.7522 164.604 16.6976C164.604 14.94 165.496 14.0612 167.28 14.0612H180.305V14.1491ZM124.382 29.3665C124.234 29.6383 124.078 29.9241 123.922 30.2314H123.743C126.42 32.6921 129.542 33.6587 133.022 33.3951C135.163 33.1315 137.126 32.0769 137.839 30.0556C138.91 27.1556 138.285 24.6949 134.628 23.2888C133.736 22.9373 132.866 22.6078 131.996 22.2782C131.126 21.9487 130.256 21.6191 129.364 21.2676C128.293 20.8282 127.758 20.0372 128.026 18.9827C128.293 18.2796 129.007 17.6645 129.632 17.225C130.078 16.9614 130.791 16.7856 131.416 16.9614C132.553 17.1294 133.69 17.4401 134.85 17.7572C135.51 17.9377 136.178 18.1202 136.858 18.2796C137.062 17.9287 137.236 17.5491 137.431 17.1246C137.578 16.8051 137.737 16.46 137.929 16.0826C135.163 14.5007 132.219 13.7977 129.007 14.6765C126.688 15.2038 125.26 16.7856 125.082 18.5433C124.814 21.6191 125.974 23.0252 128.472 24.0797C129.075 24.2896 129.693 24.4855 130.319 24.6841C131.267 24.9846 132.233 25.2912 133.2 25.6616C134.182 26.101 135.074 26.6283 135.252 27.9465C135.431 29.3526 134.182 30.495 132.308 30.6708C129.453 30.8466 127.134 29.792 125.082 27.9465C124.908 28.4037 124.658 28.861 124.382 29.3665Z" fill="black"/>
</svg>
