<svg width="260" height="52" viewBox="0 0 260 52" fill="none" xmlns="http://www.w3.org/2000/svg">
<path d="M76.8905 43.1778C76.0276 43.3403 75.1525 43.43 74.2746 43.446C69.9251 43.446 68.1526 42.486 68.1526 37.328V25.2356L64.5338 24.6993C64.3319 24.6864 64.1415 24.6003 63.9984 24.4572C63.8553 24.3141 63.7693 24.1238 63.7565 23.9218V22.196C63.7565 21.9898 63.8384 21.7921 63.9841 21.6463C64.1299 21.5005 64.3277 21.4186 64.5338 21.4186H68.1526V18.2663C68.1646 18.064 68.2504 17.8732 68.3937 17.7299C68.537 17.5867 68.7277 17.5009 68.93 17.4889L72.5099 16.8748H72.6653C72.7449 16.8656 72.8255 16.874 72.9015 16.8991C72.9775 16.9242 73.0472 16.9656 73.1056 17.0203C73.164 17.075 73.2098 17.1418 73.2398 17.216C73.2698 17.2902 73.2834 17.3701 73.2795 17.45V21.4264H76.7467C76.9529 21.4264 77.1506 21.5083 77.2963 21.6541C77.4422 21.7999 77.5241 21.9976 77.5241 22.2037V24.4738C77.5241 24.6799 77.4422 24.8776 77.2963 25.0235C77.1506 25.1692 76.9529 25.2512 76.7467 25.2512H73.2795V37.328C73.2795 39.252 73.3961 39.4813 74.7837 39.4813H76.8245C77.3258 39.4813 77.6329 39.6757 77.6329 40.0605V42.486C77.6251 42.8708 77.4036 43.0884 76.8905 43.1778ZM98.0671 34.0551H85.516V34.1678C85.516 36.4029 86.4365 39.0576 90.1374 39.0576C92.9475 39.0576 95.6023 38.8283 97.2193 38.6689H97.3358C97.725 38.6689 98.0274 38.8633 98.0274 39.2481V41.7902C98.0274 42.4044 97.9109 42.6726 97.2193 42.7892C94.7603 43.2798 92.2551 43.4988 89.7482 43.4422C85.9002 43.4422 80.4199 41.3665 80.4199 33.7792V30.9339C80.4199 24.9285 83.7701 21.1543 89.6631 21.1543C95.556 21.1543 98.8363 25.2084 98.8363 30.9339V33.0912C98.8363 33.7053 98.6066 34.0551 98.0671 34.0551ZM93.7292 30.2809C93.7292 27.2763 92.0733 25.5427 89.6862 25.5427C87.2999 25.5427 85.5664 27.2374 85.5664 30.2809V30.4325H93.7292V30.2809ZM116.161 42.9485C114.53 43.3087 112.862 43.4757 111.193 43.446C106.187 43.446 102.412 40.3676 102.412 34.0901V30.5103C102.412 24.2367 106.187 21.1543 111.193 21.1543C112.863 21.1253 114.531 21.2936 116.161 21.6558C116.814 21.8112 116.969 22.0444 116.969 22.6546V25.1579C116.969 25.5466 116.662 25.737 116.277 25.737H116.161C114.514 25.5224 112.853 25.4327 111.193 25.4688C109.381 25.4688 107.496 26.5066 107.496 30.5219V34.1018C107.496 38.1092 109.381 39.1548 111.193 39.1548C112.853 39.1889 114.513 39.0993 116.161 38.8867H116.277C116.666 38.8867 116.969 39.0771 116.969 39.4619V41.9651C116.969 42.5637 116.814 42.793 116.161 42.9485ZM138.219 43.139H134.678C134.468 43.1319 134.27 43.0435 134.126 42.8925C133.98 42.7416 133.899 42.54 133.901 42.3305V29.6628C133.901 26.3162 133.322 25.4688 130.74 25.4688C129.435 25.4688 127.891 25.9314 126.274 26.7748V42.3227C126.275 42.5321 126.195 42.7338 126.05 42.8848C125.905 43.0357 125.707 43.1241 125.497 43.1312H121.956C121.746 43.1241 121.548 43.0357 121.403 42.8848C121.258 42.7338 121.177 42.5321 121.179 42.3227V14.6087C121.179 14.4025 121.261 14.2048 121.406 14.0589C121.552 13.9132 121.75 13.8313 121.956 13.8313H125.497C125.703 13.8313 125.901 13.9132 126.046 14.0589C126.193 14.2048 126.274 14.4025 126.274 14.6087V22.5809C127.74 21.6946 129.356 21.1543 132.105 21.1543C137.418 21.1543 138.996 24.9285 138.996 29.6628V42.3305C138.997 42.54 138.917 42.7416 138.772 42.8925C138.626 43.0435 138.428 43.1319 138.219 43.139Z" fill="black"/>
<path d="M152.538 43.4461C146.494 43.4461 143.339 39.3687 143.339 33.8609V30.7513C143.339 25.2435 146.494 21.1622 152.538 21.1622C158.583 21.1622 161.75 25.2357 161.75 30.7435V33.8531C161.75 39.3687 158.583 43.4461 152.538 43.4461ZM156.659 30.7435C156.659 27.5834 155.236 25.5428 152.538 25.5428C149.841 25.5428 148.418 27.5834 148.418 30.7435V33.8531C148.418 37.0093 149.845 39.05 152.538 39.05C155.232 39.05 156.659 37.0093 156.659 33.8531V30.7435ZM174.869 43.4461C173.633 43.4364 172.398 43.3468 171.172 43.1779V49.9957C171.172 50.2018 171.091 50.3996 170.945 50.5454C170.799 50.6911 170.601 50.7731 170.396 50.7731H166.854C166.649 50.7731 166.45 50.6911 166.305 50.5454C166.159 50.3996 166.077 50.2018 166.077 49.9957V23.195C166.077 22.6198 166.232 22.3866 167.119 22.1572C169.649 21.5153 172.247 21.1786 174.858 21.1544C181.054 21.1544 184.058 24.812 184.058 30.8174V33.7831C184.07 39.7885 181.065 43.4461 174.869 43.4461ZM178.986 30.8174C178.986 27.6612 178.177 25.3134 174.869 25.3134C173.632 25.3019 172.395 25.3916 171.172 25.5816V39.0189C172.399 39.1813 173.633 39.2722 174.869 39.291C178.177 39.291 178.986 36.9588 178.986 33.7831V30.8174ZM205.285 34.0552H192.73V34.1679C192.73 36.403 193.655 39.0577 197.351 39.0577C200.162 39.0577 202.817 38.8284 204.433 38.669H204.55C204.939 38.669 205.242 38.8634 205.242 39.2483V41.7903C205.242 42.4044 205.13 42.6727 204.433 42.7892C201.976 43.2798 199.472 43.4988 196.967 43.4422C193.115 43.4422 187.638 41.3666 187.638 33.7792V30.934C187.638 24.9286 190.989 21.1544 196.881 21.1544C202.774 21.1544 206.063 25.2085 206.063 30.934V33.0913C206.063 33.7054 205.821 34.0552 205.285 34.0552ZM200.931 30.281C200.931 27.2764 199.276 25.5428 196.889 25.5428C194.502 25.5428 192.769 27.2375 192.769 30.281V30.4326H200.931V30.281ZM226.57 42.4472C224.039 43.086 221.441 43.4213 218.831 43.4461C212.612 43.4461 209.63 39.7885 209.63 33.7831V30.8174C209.63 24.812 212.631 21.1544 218.831 21.1544C220.068 21.1659 221.302 21.2568 222.528 21.4265V14.6087C222.528 14.4026 222.609 14.2049 222.755 14.059C222.901 13.9133 223.099 13.8314 223.304 13.8314H226.846C227.052 13.8314 227.25 13.9133 227.395 14.059C227.541 14.2049 227.623 14.4026 227.623 14.6087V41.4288C227.612 41.9846 227.441 42.2179 226.57 42.4472ZM222.528 25.5972C221.301 25.4379 220.067 25.3484 218.831 25.329C215.519 25.329 214.71 27.6612 214.71 30.8329V33.7987C214.71 36.9549 215.519 39.3065 218.831 39.3065C220.069 39.3191 221.305 39.2281 222.528 39.0344V25.5972ZM237.158 18.5385H233.423C233.213 18.5387 233.012 18.4578 232.862 18.3128C232.711 18.1678 232.622 17.9701 232.614 17.7611V14.3795C232.621 14.1701 232.71 13.9718 232.86 13.8267C233.011 13.6815 233.213 13.6009 233.423 13.602H237.158C237.364 13.602 237.562 13.6839 237.708 13.8297C237.853 13.9755 237.935 14.1732 237.935 14.3795V17.7688C237.933 17.9737 237.85 18.1694 237.705 18.3135C237.559 18.4577 237.363 18.5385 237.158 18.5385ZM237.041 43.1391H233.496C233.287 43.132 233.089 43.0436 232.944 42.8926C232.798 42.7416 232.718 42.54 232.719 42.3306V22.1961C232.719 21.9899 232.801 21.7922 232.947 21.6464C233.092 21.5006 233.29 21.4187 233.496 21.4187H237.041C237.248 21.4187 237.445 21.5006 237.591 21.6464C237.737 21.7922 237.819 21.9899 237.819 22.1961V42.3306C237.819 42.54 237.739 42.7416 237.594 42.8926C237.448 43.0436 237.251 43.132 237.041 43.1391ZM258.252 43.1391H254.979C254.774 43.1391 254.575 43.0572 254.43 42.9114C254.284 42.7656 254.202 42.5679 254.202 42.3616V41.7476C252.58 42.8052 250.696 43.3907 248.76 43.4384C245.566 43.4384 242.102 42.2101 242.102 37.0093V36.8694C242.102 32.4771 244.796 30.2071 251.497 30.2071H253.923V28.5085C253.923 26.0053 252.806 25.3989 250.532 25.3989C248.438 25.3923 246.344 25.4948 244.259 25.7061H244.065C243.676 25.7061 243.373 25.5894 243.373 25.053V22.5809C243.373 22.1572 243.603 21.8851 244.104 21.7724C246.222 21.3564 248.375 21.1494 250.532 21.1544C256.002 21.1544 259.003 23.5798 259.003 28.5085V42.3694C259.001 42.5696 258.922 42.7614 258.782 42.9048C258.642 43.0481 258.452 43.1321 258.252 43.1391ZM253.942 33.5927H251.517C248.018 33.5927 247.241 34.7082 247.241 36.8655V37.0171C247.241 38.9062 248.088 39.4037 250.012 39.4037C251.39 39.3724 252.74 39.0027 253.942 38.327V33.5927ZM31.8952 19.1137L31.0477 19.4208V51.1812L41.3171 45.4596V26.7439L52.6554 22.6275L53.6116 22.2777L53.6815 11.2271L31.8952 19.1137ZM40.9518 13.6293L41.7758 13.9286L42.32 14.1268L52.8925 10.2981L42.6348 6.45779L41.3171 6.93977L31.9146 10.3564L40.1199 13.3299L40.9518 13.6293Z" fill="black"/>
<path d="M29.3942 19.4209L28.5469 19.1138L19.1249 15.705V45.4597L29.3942 51.1774V19.4209Z" fill="black"/>
<path d="M17.4652 15.1063L6.75659 11.227L6.82656 22.2777L7.78275 22.6275L17.4652 26.1452V15.1063Z" fill="black"/>
<path d="M29.3921 18.212L30.2239 18.5152L31.0479 18.212L40.6487 14.7137L40.1201 14.5233L39.2766 14.2201L30.2433 10.9628L19.1228 6.93981L18.2637 6.62496L17.805 6.46171L7.54736 10.2981L29.3921 18.212ZM22.3722 9.30306L24.5723 10.2165L21.9369 11.1532L19.7368 10.2359L22.3722 9.30306ZM20.8174 12.0783L22.6288 12.8325L20.4598 13.6098L18.6563 12.848L20.8174 12.0783ZM25.4818 11.301L27.2931 12.055L25.1242 12.8325L23.3129 12.0783L25.4818 11.301ZM18.322 7.57338L20.1683 8.33134L18.0266 9.10872L16.1842 8.343L18.322 7.57338ZM12.4138 10.7723L16.1803 9.44691L19.321 10.749L15.5545 12.0783L12.4138 10.7723ZM14.1202 4.47158L12.0368 5.17124L13.7859 5.89032L15.8732 5.18679L14.1202 4.47158ZM5.16076 5.01965L7.97493 6.17407L11.3332 5.04686L8.51913 3.89632L5.16076 5.01965ZM7.45796 7.17303L5.0014 6.1663L2.07063 7.1497L4.52719 8.15643L7.45796 7.17303ZM5.30458 3.88854L3.26393 3.05284L0.830688 3.86911L2.87134 4.70481L5.30458 3.88854ZM9.84067 2.08499L8.49574 1.53304L6.89824 2.07333L8.23924 2.62139L9.84067 2.08499ZM4.77596 0.880031L3.43495 0.33197L1.83352 0.868371L3.17841 1.42032L4.77596 0.880031Z" fill="black"/>
</svg>
