<svg width="40" height="40" viewBox="0 0 40 40" fill="none" xmlns="http://www.w3.org/2000/svg">
<path d="M16.666 11.6667C16.666 14.4282 14.4274 16.6667 11.666 16.6667C8.90459 16.6667 6.66602 14.4282 6.66602 11.6667C6.66602 8.90532 8.90459 6.66675 11.666 6.66675C14.4274 6.66675 16.666 8.90532 16.666 11.6667Z" stroke="black" stroke-width="1.5" stroke-linejoin="round"/>
<path d="M33.3327 28.3334C33.3327 31.0948 31.0941 33.3334 28.3327 33.3334C25.5713 33.3334 23.3327 31.0948 23.3327 28.3334C23.3327 25.572 25.5713 23.3334 28.3327 23.3334C31.0941 23.3334 33.3327 25.572 33.3327 28.3334Z" stroke="black" stroke-width="1.5" stroke-linejoin="round"/>
<path d="M16.666 28.3334C16.666 31.0948 14.4274 33.3334 11.666 33.3334C8.90459 33.3334 6.66602 31.0948 6.66602 28.3334C6.66602 25.572 8.90459 23.3334 11.666 23.3334C14.4274 23.3334 16.666 25.572 16.666 28.3334Z" stroke="black" stroke-width="1.5" stroke-linejoin="round"/>
<path d="M33.3327 11.6667C33.3327 14.4282 31.0941 16.6667 28.3327 16.6667C25.5713 16.6667 23.3327 14.4282 23.3327 11.6667C23.3327 8.90532 25.5713 6.66675 28.3327 6.66675C31.0941 6.66675 33.3327 8.90532 33.3327 11.6667Z" stroke="black" stroke-width="1.5" stroke-linejoin="round"/>
</svg>
