<svg width="485" height="390" viewBox="0 0 485 390" fill="none" xmlns="http://www.w3.org/2000/svg">
<path d="M484.143 10.6204C484.126 7.7912 479.733 7.7912 479.75 10.6204C479.856 30.9523 480.723 15.9387 480.846 36.2706C358.591 39.4513 236.266 38.6254 113.976 38.0279C79.4096 37.8522 44.8436 37.7116 10.2776 37.6589C7.44836 37.6589 7.44836 42.0521 10.2776 42.0521C133.077 42.2279 255.859 43.7391 378.659 42.4739C412.733 42.1224 446.807 41.5425 480.881 40.6639C481.496 143.694 481.244 282.105 478.362 385.117C355.422 382.903 232.481 381.445 109.523 380.742C75.4142 380.548 41.3227 380.425 7.21361 380.338C3.7166 255.816 3.453 131.206 6.42283 6.66653C128.695 3.64398 251.038 3.62641 373.311 6.71925C408.281 7.59789 443.251 8.74013 478.204 10.1284C481.033 10.2338 481.033 5.8406 478.204 5.73516C355.861 0.9026 233.395 -0.889838 110.947 0.41056C75.959 0.779592 40.9888 1.41222 6.01865 2.29086C5.86049 2.29086 5.71991 2.30844 5.57933 2.34358C4.31407 1.5528 2.13503 2.13271 2.09988 4.11845C-0.940236 129.993 -0.676644 255.921 2.87309 381.779C2.45134 383.061 3.11911 384.748 4.8764 384.748C128.151 385.03 251.425 386.049 374.681 387.841C409.511 388.351 444.358 388.913 479.188 389.546C480.453 390.372 482.65 389.792 482.72 387.789C486.252 262.072 484.794 136.337 484.143 10.6204Z" fill="black"/>
<path d="M40.3398 109.631C39.7877 126.749 40.1845 143.795 41.5128 160.818C41.8061 164.611 46.1189 164.659 45.8256 160.818C44.4973 143.987 44.1177 127.181 44.6353 110.279C50.9146 111.215 77.5422 112.128 83.8044 113.064C89.5662 113.904 96.6046 113.496 102.108 115.753C111.095 119.426 109.163 130.398 109.008 140.626C108.905 148.405 108.577 156.184 108.163 163.939C93.7927 163.939 59.0744 163.939 44.687 163.939C41.9096 163.939 41.9096 169.941 44.687 169.941C59.7299 169.941 95.121 169.941 110.164 169.941C111.406 169.941 112.234 168.548 112.32 166.94C112.993 155.247 113.39 143.555 113.373 131.839C113.373 126.005 114.753 116.161 110.888 112.176C106.541 107.686 97.2602 109.03 92.1194 108.262C82.683 106.87 52.9158 105.477 43.4795 104.085C42.0131 103.868 41.3403 105.477 41.4438 107.086C40.8573 107.566 40.3915 108.382 40.3398 109.631Z" fill="black"/>
<path d="M123.401 109.631C122.849 126.749 123.246 143.795 124.574 160.818C124.867 164.611 129.18 164.659 128.887 160.818C127.558 143.987 127.179 127.181 127.696 110.279C133.976 111.215 160.603 112.128 166.865 113.064C172.627 113.904 179.666 113.496 185.169 115.753C194.156 119.426 192.224 130.398 192.069 140.626C191.966 148.405 191.638 156.184 191.224 163.939C176.854 163.939 142.135 163.939 127.748 163.939C124.971 163.939 124.971 169.941 127.748 169.941C142.791 169.941 178.182 169.941 193.225 169.941C194.467 169.941 195.295 168.548 195.381 166.94C196.054 155.247 196.451 143.555 196.434 131.839C196.434 126.005 197.814 116.161 193.949 112.176C189.602 107.686 180.321 109.03 175.18 108.262C165.744 106.87 135.977 105.477 126.54 104.085C125.074 103.868 124.401 105.477 124.505 107.086C123.918 107.566 123.453 108.382 123.401 109.631Z" fill="black"/>
<path d="M223.059 337.911C216.809 337.423 210.559 337.054 204.301 336.793C204.645 322.269 204.242 307.752 203.889 293.228C203.528 278.485 203.385 263.699 202.688 248.973C202.646 248.083 201.898 247.679 201.218 247.747C201.453 247.041 201.1 246.134 200.125 246.142C196.001 246.176 191.884 246.318 187.768 246.47C185.567 246.545 181.846 245.94 179.636 246.898C179.611 246.89 179.577 246.89 179.552 246.881C179.342 246.831 179.04 246.907 178.947 247.125C178.712 247.637 178.704 247.755 178.872 248.309C178.897 248.402 178.947 248.477 178.998 248.561C178.233 248.007 176.864 248.326 176.898 249.553C176.931 251.166 176.965 252.77 177.007 254.383C176.847 254.265 176.696 254.148 176.545 254.03C176.158 253.736 175.663 254.383 176.024 254.702C176.36 254.996 176.696 255.29 177.032 255.584C177.217 263.909 177.402 272.226 177.578 280.551C177.234 280.618 176.973 281.114 177.301 281.383C177.402 281.467 177.503 281.551 177.603 281.635C177.687 285.499 177.771 289.363 177.855 293.228C178.166 307.534 178.032 321.983 179.216 336.256C175.024 336.247 170.824 336.281 166.632 336.348C166.935 332.459 166.43 328.426 166.22 324.57C165.935 319.354 165.658 314.137 165.414 308.92C165.187 303.972 165.002 299.032 164.834 294.085C164.666 289.078 164.969 283.895 164.204 278.947C164.154 278.619 164.003 278.409 163.809 278.291C164.213 277.476 163.809 276.242 162.617 276.2C158.626 276.065 154.644 275.981 150.654 276.107C147.621 276.208 144.412 275.998 141.649 277.35C141.262 277.544 141.43 278.056 141.758 278.19C142.934 278.653 144.211 278.854 145.521 278.93C150.612 282.97 155.879 286.994 161.524 290.203C161.667 290.287 161.802 290.321 161.936 290.329C161.995 291.59 162.045 292.841 162.079 294.085C162.087 294.395 162.104 294.698 162.104 295.009C154.695 290.523 147.991 285.146 140.842 280.333C140.75 279.879 140.666 279.417 140.565 278.963C140.338 277.938 138.91 278.022 138.574 278.854C138.154 278.711 137.784 279.291 138.112 279.644C138.246 279.787 138.389 279.929 138.524 280.072C138.566 282.097 138.658 284.113 138.792 286.138C138.49 286.289 138.305 286.726 138.608 286.994C138.692 287.07 138.784 287.137 138.868 287.204C139.011 289.221 139.179 291.237 139.355 293.261C138.91 293.001 138.372 293.698 138.792 294.051C139.019 294.236 139.246 294.421 139.473 294.614C139.884 299.268 140.288 303.922 140.405 308.576C140.472 311.297 140.481 314.019 140.456 316.733C140.128 316.523 139.792 316.321 139.464 316.111C138.927 315.775 138.498 316.581 138.977 316.943C139.464 317.304 139.952 317.674 140.439 318.043C140.363 324.436 140.145 330.821 140.187 337.213C137.793 337.331 135.407 337.449 133.013 337.575C131.366 337.667 129.728 337.743 128.09 337.827C128.493 329.418 129.014 320.253 127.645 311.969C127.493 311.062 126.637 310.995 126.032 311.381C125.897 311.121 125.687 310.911 125.377 310.844C118.614 309.34 110.65 309.995 103.778 310.365C103.762 310.365 103.753 310.373 103.736 310.373C103.535 310.298 103.325 310.415 103.224 310.592C103.19 310.625 103.148 310.642 103.123 310.676C102.384 310.147 101.015 310.516 100.905 311.726C100.847 312.364 100.805 313.02 100.754 313.666C100.435 313.725 100.2 314.204 100.485 314.481C100.544 314.54 100.611 314.599 100.679 314.658C100.124 322.588 100.208 330.821 101.51 338.608C97.2596 338.625 93.0005 338.591 88.7413 338.473C88.3297 338.465 87.9265 338.448 87.5148 338.431C88.2541 331.367 88.0861 324.142 87.9685 317.06C87.8509 310.231 88.2877 303.065 87.3216 296.302C87.2124 295.563 86.6076 295.403 86.0615 295.58C86.0867 294.874 85.6499 294.143 84.7426 294.127C77.8205 294.009 70.9068 293.614 64.0099 293.034C63.4974 292.992 63.2118 293.429 63.195 293.866C62.8422 293.916 62.5481 294.16 62.4809 294.639C61.5233 301.687 61.9517 309.113 61.9685 316.22C61.9769 320.042 62.0609 323.865 62.1785 327.679C62.2793 330.863 62.1365 334.223 63.1194 337.272C59.3895 336.928 55.3824 336.407 51.5265 336.373C51.4845 321.261 51.4341 306.139 51.3921 291.027C51.3669 282.164 51.3165 273.301 51.3249 264.43C51.3249 259.995 51.3837 255.568 51.3333 251.132C51.2997 247.881 51.9045 243.891 49.9472 241.144C49.9304 241.118 49.8968 241.118 49.88 241.144C47.9478 243.899 48.5695 247.889 48.5611 251.132C48.5443 255.568 48.6283 259.995 48.6535 264.43C48.7207 273.293 48.7207 282.156 48.7459 291.027C48.7963 306.165 48.8467 321.303 48.8971 336.441C47.3094 336.541 45.7637 336.743 44.3019 337.121C43.7391 337.264 43.8399 337.978 44.3019 338.163C45.7469 338.742 47.3094 339.053 48.9055 339.246C48.9139 340.901 48.9139 342.556 48.9223 344.211C48.9307 345.891 51.5433 345.9 51.5349 344.211C51.5265 342.64 51.5265 341.061 51.5181 339.49C52.5094 339.557 53.5006 339.616 54.4583 339.7C58.3562 340.011 62.2541 340.238 66.152 340.456C73.3934 340.851 80.6347 341.179 87.8845 341.355C102.947 341.716 117.95 341.187 132.996 340.389C163.037 338.784 192.985 339.036 223.017 340.641C224.807 340.708 224.781 338.045 223.059 337.911ZM85.4399 330.442C80.9287 326.351 75.1659 323.176 70.1423 319.799C69.193 319.16 66.656 316.716 64.7659 316.153C64.7491 314.17 64.7911 312.171 64.8331 310.163C70.6212 314.96 77.3753 320.32 84.2386 323.268C84.5662 323.411 84.9358 323.302 85.2047 323.092C85.2383 325.545 85.3055 327.998 85.4399 330.442ZM75.5607 315.884C71.9989 313.591 68.5714 311.121 65.0599 308.752C64.9927 308.71 64.9255 308.685 64.8583 308.668C64.9003 306.643 64.9423 304.611 64.9423 302.586C67.8321 304.837 70.8144 306.963 73.8302 309.038C77.0476 311.255 80.2903 313.944 83.9278 315.397C84.667 315.691 85.2551 314.582 84.6922 314.078C81.9704 311.6 78.4254 309.911 75.3171 307.946C71.8477 305.753 68.4286 303.493 64.9339 301.351C64.9171 299.864 64.8667 298.386 64.7827 296.916C67.975 299.2 71.184 301.452 74.4519 303.628C77.6777 305.778 80.9119 308.349 84.5326 309.752C84.6502 309.794 84.7594 309.802 84.8686 309.785C84.961 312.784 85.0955 315.775 85.1291 318.69C85.1375 319.765 85.1543 320.849 85.1711 321.933C82.1888 319.639 78.7362 317.917 75.5607 315.884ZM84.7678 296.857C84.9106 296.857 85.0367 296.84 85.1543 296.806C84.9863 298.285 84.9022 299.797 84.8434 301.309C82.5585 299.52 79.9375 297.991 77.3417 296.521C79.8031 296.714 82.2728 296.823 84.7678 296.857ZM73.9814 296.21C77.4173 298.772 81.0212 301.704 84.793 303.544C84.7762 304.98 84.7846 306.425 84.8182 307.87C81.9704 305.568 78.4926 303.93 75.3843 302.032C71.7888 299.839 68.227 297.588 64.6819 295.311C64.6735 295.177 64.6651 295.051 64.6567 294.916C64.6567 294.883 64.6399 294.857 64.6315 294.832C67.7481 295.429 70.8564 295.882 73.9814 296.21ZM66.2024 337.491C65.6732 337.457 65.1439 337.423 64.5979 337.381C65.0851 335.407 65.1187 333.332 65.0599 331.266C66.5468 332.358 68.0338 333.433 69.5207 334.517C71.016 335.6 72.4945 336.827 74.057 337.885C71.436 337.768 68.815 337.642 66.2024 337.491ZM76.9048 338.028C75.0399 336.323 72.7549 335.012 70.68 333.593C68.7898 332.299 66.9081 331.005 65.0011 329.728C64.9759 329.04 64.9423 328.351 64.9339 327.67C64.9171 326.679 64.9003 325.679 64.8835 324.688C67.4961 326.729 70.1423 328.72 72.8053 330.695C76.2496 333.248 79.6854 336.256 83.4741 338.289C81.2816 338.196 79.0974 338.121 76.9048 338.028ZM84.8854 338.331C85.1123 338.07 85.1711 337.675 84.8434 337.356C81.9452 334.55 78.2909 332.425 74.9727 330.148C71.6292 327.847 68.2774 325.537 64.8667 323.336C64.8415 321.571 64.8079 319.807 64.7827 318.052C65.816 318.841 67.2861 319.631 68.0506 320.202C69.9827 321.647 71.9569 323.05 73.9058 324.461C77.5265 327.091 81.122 330.249 85.1291 332.249C85.2719 332.324 85.4231 332.333 85.5575 332.324C85.6919 334.349 85.8767 336.373 86.1371 338.373C85.7171 338.373 85.2971 338.347 84.8854 338.331ZM125.385 313.02C125.183 314.893 125.091 316.808 125.057 318.749C123.075 317.069 120.672 315.725 118.572 314.271C118.253 314.053 117.866 313.734 117.446 313.398C120.168 313.482 122.848 313.406 125.385 313.02ZM114.909 313.263C118.026 315.767 124.209 320.614 125.057 321.059C125.074 322.294 125.099 323.529 125.158 324.772C122.31 322.487 118.757 320.782 115.791 318.782C112.734 316.724 109.709 314.607 106.71 312.457C109.373 312.768 112.146 313.087 114.909 313.263ZM103.602 312.037C103.669 312.062 103.728 312.087 103.804 312.095C104.031 312.121 104.266 312.154 104.493 312.179C107.592 314.943 110.785 317.615 114.128 320.084C117.522 322.596 121.26 325.873 125.293 327.334C125.385 328.796 125.494 330.249 125.612 331.694C122.142 328.712 117.892 326.41 114.212 323.73C110.575 321.084 107.021 318.32 103.459 315.573C103.51 314.397 103.543 313.213 103.602 312.037ZM102.98 338.591C103.056 336.222 103.098 333.862 103.14 331.501C104.341 333.013 106.005 334.256 107.492 335.39C108.844 336.415 110.44 337.751 112.137 338.431C109.088 338.507 106.038 338.574 102.98 338.591ZM114.531 338.373C114.615 338.112 114.573 337.793 114.38 337.583C112.969 335.995 110.507 335.197 108.726 334.03C106.811 332.778 105.123 331.106 103.157 329.955C103.182 328.073 103.216 326.183 103.241 324.302C108.626 329.535 114.968 334.794 121.781 337.776C122.856 338.247 123.747 336.835 122.722 336.172C116.077 331.845 109.424 328.09 103.258 323.058C103.291 321.101 103.333 319.144 103.392 317.186C106.5 320 109.735 322.663 113.053 325.226C116.942 328.233 121.109 331.98 125.637 333.929C125.696 333.954 125.755 333.954 125.805 333.971C125.923 335.298 126.049 336.625 126.166 337.919C122.302 338.104 118.412 338.255 114.531 338.373ZM163.465 323.361C160.844 321.143 157.87 319.244 155.148 317.203C151.427 314.414 147.731 311.6 144.034 308.777C143.556 308.416 142.934 309.214 143.388 309.609C149.654 315.053 156.325 321.613 163.616 325.721C163.759 327.88 163.86 330.098 164.104 332.299C157.45 327.259 150.2 322.798 143.093 318.371C143.085 314.817 143.009 311.272 142.9 307.752C142.841 305.761 142.791 303.737 142.732 301.695C149.243 307.274 155.913 313.616 163.129 318.236C163.238 319.95 163.347 321.655 163.465 323.361ZM162.986 315.825C157.005 310.247 149.797 305.467 143.262 300.629C143.077 300.494 142.875 300.519 142.707 300.62C142.673 299.453 142.631 298.285 142.581 297.109C145.084 299.091 147.638 301.032 150.192 302.956C154.216 305.988 158.315 309.525 162.776 311.902C162.843 313.204 162.911 314.515 162.986 315.825ZM162.65 309.5C159.382 306.946 155.686 304.837 152.292 302.485C148.999 300.2 145.765 297.831 142.505 295.487C142.413 293.614 142.295 291.741 142.136 289.876C144.824 292.035 147.563 294.135 150.326 296.176C154.149 298.999 158.139 302.443 162.44 304.636C162.516 306.257 162.575 307.878 162.65 309.5ZM147.411 278.972C148.781 278.963 150.15 278.896 151.444 278.896C151.771 278.896 152.107 278.896 152.435 278.905C152.452 279.081 152.536 279.241 152.721 279.341C154.275 280.173 155.837 280.971 157.341 281.904C158.811 282.819 160.172 284.163 161.743 284.827C161.751 284.835 161.768 284.835 161.777 284.835C161.785 285.978 161.81 287.12 161.852 288.263C157.072 285.121 152.175 282.156 147.411 278.972ZM162.062 279.241C161.911 280.4 161.844 281.584 161.802 282.777C160.71 281.878 159.307 281.19 158.131 280.534C157.081 279.946 156.005 279.409 154.913 278.921C157.324 278.93 159.735 278.947 162.138 278.989C162.113 279.064 162.079 279.148 162.062 279.241ZM141.287 282.752C147.311 288.263 154.695 292.866 161.482 297.008C161.726 297.159 161.97 297.184 162.18 297.134C162.23 298.814 162.281 300.494 162.339 302.166C159.198 299.805 155.619 297.84 152.435 295.63C148.907 293.186 145.446 290.665 141.985 288.137C141.8 286.331 141.573 284.533 141.287 282.752ZM142.144 337.121C142.321 335.701 142.455 334.273 142.581 332.845C143.959 333.576 145.336 334.307 146.697 335.071C147.647 335.609 148.596 336.273 149.579 336.827C147.101 336.919 144.622 337.012 142.144 337.121ZM152.586 336.709C152.553 336.634 152.502 336.567 152.435 336.499C151.007 335.13 148.882 334.408 147.109 333.576C145.647 332.887 144.169 332.223 142.673 331.61C142.959 327.771 143.077 323.898 143.102 320.034C150.058 325.326 157.097 330.737 164.54 335.197C164.616 335.592 164.692 335.987 164.784 336.382C160.718 336.457 156.652 336.575 152.586 336.709ZM200.184 248.553C200.142 248.679 200.117 248.813 200.117 248.973C200.117 250.116 200.134 251.25 200.142 252.392C199.336 251.787 198.437 251.275 197.706 250.813C196.513 250.057 195.27 249.418 193.985 248.864C196.034 248.78 198.084 248.679 200.125 248.57C200.142 248.561 200.159 248.553 200.184 248.553ZM191.826 248.931C191.851 249.074 191.926 249.208 192.086 249.275C193.724 249.973 195.303 250.788 196.774 251.804C197.958 252.619 198.966 253.913 200.159 254.736C200.176 256.097 200.193 257.458 200.218 258.81C196.001 255.475 191.674 252.266 187.356 249.074C188.852 249.04 190.339 248.99 191.826 248.931ZM185.685 249.124C190.49 253.148 195.303 257.189 200.26 261.028C200.277 262.12 200.293 263.212 200.319 264.304C197.756 262.095 194.606 260.322 191.943 258.365C187.936 255.408 184.013 252.342 180.14 249.2C181.988 249.191 183.837 249.166 185.685 249.124ZM179.678 257.878C182.392 260.18 185.147 262.431 187.928 264.657C191.448 267.48 195.152 271.159 199.277 273.049C199.957 273.36 200.621 272.587 200.092 271.991C197.026 268.572 192.573 266.136 188.902 263.397C185.802 261.087 182.728 258.735 179.653 256.391C179.603 254.265 179.561 252.14 179.51 250.023C183.274 253.291 187.096 256.5 191.002 259.608C193.951 261.952 196.992 264.867 200.386 266.606C200.478 270.327 200.571 274.041 200.68 277.762C193.926 272.604 186.894 267.706 179.804 263.036C179.754 261.314 179.72 259.591 179.678 257.878ZM179.821 264.338C186.424 269.555 193.145 274.713 199.999 279.577C200.058 279.703 200.151 279.82 200.31 279.904C200.453 279.988 200.596 280.064 200.739 280.148C200.789 281.803 200.84 283.458 200.882 285.113C197.756 282.324 193.842 280.282 190.456 277.846C186.92 275.301 183.459 272.654 179.956 270.075C179.914 268.169 179.872 266.253 179.821 264.338ZM179.981 271.352C182.778 273.637 185.668 275.822 188.558 277.98C192.447 280.895 196.412 284.617 200.823 286.658C200.856 286.675 200.89 286.675 200.924 286.684C200.974 288.439 201.024 290.203 201.066 291.959C197.941 289.246 194.052 287.238 190.616 284.97C187.079 282.634 183.61 280.207 180.124 277.787C180.082 275.645 180.031 273.495 179.981 271.352ZM180.157 278.896C183.19 281.156 186.256 283.374 189.314 285.591C192.977 288.238 196.723 291.497 200.848 293.354C200.932 293.396 201.024 293.404 201.108 293.404C201.15 295.093 201.201 296.773 201.243 298.461C198.109 295.345 194.119 292.833 190.633 290.187C187.18 287.574 183.719 284.961 180.233 282.374C180.208 281.215 180.182 280.055 180.157 278.896ZM180.266 283.827C183.383 286.381 186.508 288.918 189.641 291.455C193.346 294.454 197.009 298.041 201.192 300.335C201.226 300.351 201.251 300.351 201.285 300.368C201.31 301.443 201.344 302.519 201.369 303.594C194.447 298.57 187.398 293.698 180.367 288.817L180.266 283.827ZM180.485 293.228C180.46 292.194 180.434 291.153 180.418 290.119C187.382 295.353 194.346 300.612 201.428 305.677C201.436 305.686 201.444 305.686 201.453 305.686C201.503 307.484 201.554 309.273 201.612 311.071C199.084 308.853 195.589 307.013 193.229 305.274C189.02 302.166 184.803 299.083 180.569 296.008C180.535 295.084 180.502 294.16 180.485 293.228ZM180.594 297.235C184.483 300.326 188.381 303.409 192.304 306.467C194.984 308.567 198.345 312.238 201.696 313.893C201.755 315.674 201.822 317.447 201.898 319.228C195.127 313.776 188.113 308.424 180.779 303.745C180.703 301.569 180.653 299.402 180.594 297.235ZM180.804 304.896C187.524 310.264 194.396 315.456 201.108 320.841C201.386 321.059 201.696 321.093 201.974 321C202.058 322.832 202.133 324.671 202.226 326.503C195.732 320.622 188.163 315.473 180.972 310.466C180.922 308.609 180.863 306.753 180.804 304.896ZM202.335 328.603C202.41 329.947 202.486 331.299 202.57 332.643C199.571 330.182 196.026 328.242 192.892 325.999C188.911 323.142 185.004 320.168 181.132 317.169C181.098 315.38 181.056 313.591 181.006 311.801C187.995 317.48 194.934 323.562 202.335 328.603ZM181.048 336.256C181.106 334.718 181.14 333.181 181.174 331.644C182.711 332.82 184.265 333.962 185.886 335.021C186.525 335.432 187.18 335.886 187.861 336.323C185.592 336.289 183.316 336.264 181.048 336.256ZM191.33 336.382C189.902 335.567 188.356 334.886 186.962 334.063C184.979 332.887 183.064 331.602 181.199 330.241C181.216 328.939 181.224 327.637 181.224 326.335C186.491 329.896 191.935 333.752 197.555 336.541C195.48 336.483 193.405 336.424 191.33 336.382ZM199.655 336.617C199.731 336.34 199.663 336.012 199.353 335.777C193.917 331.602 187.323 328.267 181.224 324.923C181.216 322.747 181.182 320.563 181.148 318.379C184.08 321.009 187.088 323.546 190.213 325.957C194.094 328.964 198.219 332.652 202.713 334.702C202.755 335.374 202.797 336.046 202.847 336.718C201.789 336.684 200.722 336.651 199.655 336.617Z" fill="#3C3C3B"/>
<path d="M190.421 200.216C190.27 199.014 189.145 198.149 187.968 198.813C185.675 200.09 183.298 201.257 181.097 202.694C180.794 202.895 180.635 203.198 180.584 203.517C180.509 203.752 180.475 204.03 180.525 204.324C180.66 205.13 181.206 205.785 181.853 206.348C155.954 233.331 130.071 260.331 104.306 287.44C93.604 279.812 82.3807 273.158 70.141 268.294C69.343 267.975 68.8221 269.269 69.5614 269.672C81.3055 276.115 92.9152 282.861 103.735 290.783C104.273 291.178 105.163 290.993 105.6 290.539C131.978 263.178 158.222 235.692 184.457 208.196C185.532 208.86 186.658 209.406 187.834 209.902C188.64 210.238 189.699 209.532 189.884 208.734C190.539 205.937 190.783 203.063 190.421 200.216Z" fill="#3C3C3B"/>
<path d="M159.636 334.954C157.553 333.063 154.604 332.005 152.176 330.585C149.413 328.972 146.708 327.267 143.969 325.629C143.364 325.268 142.877 326.158 143.423 326.561C146.019 328.435 148.715 330.174 151.429 331.862C153.798 333.332 156.251 335.365 158.947 336.138C159.603 336.314 160.157 335.432 159.636 334.954Z" fill="#3C3C3B"/>
<path d="M206.462 109.631C205.91 126.749 206.307 143.795 207.635 160.818C207.928 164.611 212.241 164.659 211.948 160.818C210.619 143.987 210.24 127.181 210.757 110.279C217.037 111.215 243.664 112.128 249.926 113.064C255.688 113.904 262.727 113.496 268.23 115.753C277.217 119.426 275.285 130.398 275.13 140.626C275.027 148.405 274.699 156.184 274.285 163.939C259.915 163.939 225.196 163.939 210.809 163.939C208.032 163.939 208.032 169.941 210.809 169.941C225.852 169.941 261.243 169.941 276.286 169.941C277.528 169.941 278.356 168.548 278.442 166.94C279.115 155.247 279.512 143.555 279.495 131.839C279.495 126.005 280.875 116.161 277.01 112.176C272.663 107.686 263.382 109.03 258.241 108.262C248.805 106.87 219.038 105.477 209.601 104.085C208.135 103.868 207.462 105.477 207.566 107.086C206.979 107.566 206.514 108.382 206.462 109.631Z" fill="black"/>
<path d="M289.523 109.631C288.971 126.749 289.368 143.795 290.696 160.818C290.989 164.611 295.302 164.659 295.009 160.818C293.68 143.987 293.301 127.181 293.818 110.279C300.098 111.215 326.725 112.128 332.987 113.064C338.749 113.904 345.788 113.496 351.291 115.753C360.279 119.426 358.346 130.398 358.191 140.626C358.088 148.405 357.76 156.184 357.346 163.939C342.976 163.939 308.257 163.939 293.87 163.939C291.093 163.939 291.093 169.941 293.87 169.941C308.913 169.941 344.304 169.941 359.347 169.941C360.589 169.941 361.417 168.548 361.503 166.94C362.176 155.247 362.573 143.555 362.556 131.839C362.556 126.005 363.936 116.161 360.072 112.176C355.724 107.686 346.443 109.03 341.302 108.262C331.866 106.87 302.099 105.477 292.663 104.085C291.196 103.868 290.523 105.477 290.627 107.086C290.04 107.566 289.575 108.382 289.523 109.631Z" fill="black"/>
<path d="M450.138 341.148C449.747 337.921 449.365 334.685 448.983 331.458C449.231 331.219 449.336 330.761 449.069 330.455C448.992 330.36 448.907 330.274 448.83 330.178C446.529 310.95 444.219 291.722 441.928 272.494C441.727 270.842 439.445 270.317 438.901 272.083C435.006 284.753 429.927 296.954 423.721 308.63C423.578 308.535 423.444 308.43 423.301 308.334C423.158 308.229 423.005 308.267 422.89 308.353C422.68 303.083 422.47 297.813 422.251 292.543C422.432 292.304 422.461 291.951 422.232 291.713C422.222 291.703 422.222 291.703 422.212 291.693C421.573 275.835 420.933 259.977 420.293 244.129C420.217 242.286 417.802 242.057 417.181 243.709C415.577 248.024 413.983 252.34 412.379 256.655C411.873 256.531 411.357 257.132 411.825 257.552C411.882 257.6 411.93 257.648 411.987 257.705C411.443 259.166 410.909 260.627 410.364 262.078C410.068 262.202 409.877 262.593 410.068 262.87C408.751 266.412 407.443 269.954 406.125 273.496C406.087 273.468 406.039 273.43 406.001 273.401C405.581 273.086 405.018 273.802 405.428 274.136L405.772 274.422C403.185 281.411 400.588 288.4 398.001 295.388C397.667 295.579 397.456 296.009 397.638 296.362C395.528 302.062 393.408 307.752 391.299 313.452C388.167 308.563 385.045 303.685 381.923 298.787C381.312 297.832 379.88 297.765 379.279 298.787C375.307 305.585 371.335 312.382 367.354 319.189C364.795 306.501 362.227 293.813 359.659 281.125C359.392 279.788 357.482 279.673 356.833 280.752C355.601 282.843 354.36 284.934 353.129 287.025C352.814 287.044 352.546 287.445 352.709 287.731C352.04 288.858 351.381 289.975 350.713 291.101C350.179 290.786 349.51 291.474 350.016 291.951C350.054 291.989 350.102 292.028 350.14 292.066C349.348 293.402 348.565 294.729 347.773 296.066C347.496 295.856 347.228 295.646 346.952 295.445C346.522 295.121 345.959 295.846 346.369 296.2C346.665 296.448 346.961 296.696 347.257 296.944C345.777 299.446 344.307 301.938 342.827 304.439C342.474 300.754 342.121 297.078 341.767 293.393C341.777 293.402 341.786 293.402 341.796 293.412C342.417 293.851 343.228 292.82 342.617 292.343C342.283 292.075 341.93 291.827 341.596 291.569C340.259 277.611 338.913 263.653 337.586 249.686C337.433 248.082 335.409 247.805 334.827 249.313C332.755 254.698 330.693 260.092 328.63 265.477C328.363 265.62 328.182 265.935 328.334 266.24C325.26 274.26 322.176 282.27 319.112 290.3C318.844 290.405 318.682 290.777 318.816 291.082C316.878 296.162 314.93 301.241 312.992 306.329C311.388 301.976 309.784 297.622 308.18 293.269C307.655 291.846 305.851 291.884 305.316 293.269C302.71 300.038 299.865 306.692 296.819 313.261C296.389 313.041 295.864 313.576 296.275 313.929C296.332 313.977 296.389 314.024 296.447 314.072C295.186 316.774 293.898 319.466 292.561 322.13C289.133 309.728 286.346 297.164 284.217 284.466C284.026 283.301 282.145 283.072 281.648 284.132C279.558 288.543 277.467 292.963 275.376 297.374C275.128 297.412 274.927 297.746 275.089 297.975C271.204 306.196 267.337 314.425 263.604 322.712C263.432 322.541 263.26 322.378 263.089 322.206C262.688 321.805 262.105 322.407 262.468 322.827C262.707 323.094 262.945 323.371 263.184 323.638C262.535 325.09 261.867 326.541 261.227 327.992C261.208 327.973 261.189 327.954 261.17 327.944C260.749 327.534 260.148 328.154 260.53 328.584C260.625 328.689 260.721 328.794 260.816 328.909C259.699 331.448 258.601 333.988 257.523 336.537C256.997 319.505 256.606 302.472 256.386 285.44C256.11 264.14 256.74 242.764 255.947 221.483C255.899 220.223 254.066 220.232 254 221.483C252.835 242.726 253.532 264.178 253.809 285.44C254.038 302.94 254.439 320.431 254.983 337.921C252.014 337.931 249.054 338.007 246.104 338.179C245.312 338.227 245.025 339.496 245.904 339.649C248.93 340.174 251.995 340.585 255.078 340.909C255.164 343.735 255.25 346.561 255.355 349.378C255.413 351.039 258 351.049 257.943 349.378C257.847 346.638 257.761 343.898 257.675 341.158C270.239 342.313 283.09 342.246 295.549 342.743C312.352 343.42 329.165 343.955 345.978 344.346C359.392 344.662 372.815 344.862 386.238 345.005C386.267 345.015 386.296 345.005 386.324 345.005C389.695 345.043 393.055 345.091 396.425 345.12C404.674 345.177 412.923 345.196 421.172 345.187C429.936 345.177 439.121 345.855 447.828 344.862C449.193 344.709 449.451 343.172 448.572 342.523C449.46 342.628 450.253 342.17 450.138 341.148ZM439.703 279.578C439.932 281.449 440.152 283.311 440.381 285.182C440.285 285.106 440.19 285.02 440.114 284.944C439.512 284.342 438.987 283.683 438.491 282.996C438.901 281.85 439.312 280.714 439.703 279.578ZM438.051 284.218C438.405 284.714 438.777 285.201 439.187 285.66C439.569 286.089 440.066 286.738 440.62 287.139C440.839 288.963 441.059 290.786 441.278 292.6C440.782 292.266 440.285 291.942 439.808 291.598C438.605 290.739 437.412 289.87 436.199 289.03C436.839 287.445 437.459 285.831 438.051 284.218ZM435.999 289.574C437.078 290.51 438.175 291.417 439.264 292.333C439.999 292.954 440.734 293.641 441.488 294.271C441.727 296.276 441.975 298.281 442.214 300.286C441.211 299.637 440.18 299.016 439.235 298.31C437.479 296.992 435.941 295.34 434.147 294.08C434.777 292.581 435.388 291.082 435.999 289.574ZM433.831 294.787C435.063 296.524 436.858 297.956 438.481 299.283C439.722 300.295 441.03 301.432 442.453 302.253C442.71 304.391 442.968 306.53 443.226 308.668C439.799 305.585 434.242 300.725 432.18 298.529C432.753 297.288 433.287 296.037 433.831 294.787ZM431.502 299.98C432.753 301.603 434.786 303.083 435.865 304.143C438.252 306.482 440.763 309.279 443.551 311.313C443.827 313.604 444.104 315.896 444.381 318.187C442.195 316.383 439.856 314.721 437.746 312.831C434.891 310.263 432.218 307.523 429.602 304.716C429.516 304.63 429.43 304.582 429.335 304.563C430.079 303.036 430.795 301.508 431.502 299.98ZM428.867 305.508C433.335 310.769 438.701 316.736 444.668 320.497C444.906 322.483 445.145 324.469 445.393 326.455C439.674 320.622 432.886 315.275 426.318 310.501C427.187 308.85 428.027 307.179 428.867 305.508ZM425.735 311.58C429.172 314.664 432.686 317.671 436.132 320.746C439.34 323.619 442.434 326.722 445.756 329.491C446.061 332.05 446.377 334.599 446.682 337.157C439.235 329.739 431.397 322.684 423.368 315.838C424.179 314.435 424.962 313.012 425.735 311.58ZM417.467 252.072L417.821 260.799C416.923 260.044 415.978 259.319 415.042 258.612C415.844 256.435 416.656 254.259 417.467 252.072ZM414.517 259.997C415.606 260.999 416.723 261.973 417.897 262.851L418.079 267.329C416.513 266.05 414.804 264.894 413.124 263.739C413.591 262.498 414.059 261.247 414.517 259.997ZM412.637 265.085C414.422 266.641 416.236 268.226 418.174 269.506L418.355 274.05C417.611 273.63 416.866 273.219 416.179 272.771C414.451 271.644 412.78 270.441 411.08 269.257C411.596 267.864 412.111 266.47 412.637 265.085ZM410.804 269.993C412.15 271.367 413.601 272.589 415.167 273.735C416.169 274.47 417.277 275.31 418.432 275.988L418.718 283.053C417.057 281.526 415.062 280.265 413.295 278.919L408.77 275.482C409.448 273.659 410.126 271.826 410.804 269.993ZM408.359 276.571C409.725 277.707 411.099 278.852 412.465 279.988C414.498 281.678 416.484 283.702 418.785 285.01L418.957 289.173C417.534 288.237 416.045 287.378 414.68 286.452C412.006 284.609 409.4 282.671 406.822 280.676C407.347 279.301 407.853 277.936 408.359 276.571ZM406.421 281.774C408.55 283.588 410.708 285.354 412.942 287.044C414.871 288.505 416.895 290.214 419.062 291.493L419.339 298.233C414.813 293.966 409.715 289.994 404.77 286.242C405.314 284.762 405.868 283.273 406.421 281.774ZM404.311 287.464C409.095 291.903 414.145 296.448 419.415 300.267L419.616 305.336C414.451 300.41 408.436 296.104 402.631 291.97C403.194 290.471 403.748 288.963 404.311 287.464ZM402.287 292.906C408.102 297.899 413.696 303.284 419.721 307.981L419.921 312.926C413.782 307.752 407.567 302.663 401.38 297.594C401.18 297.393 400.979 297.193 400.769 297.002C401.275 295.636 401.781 294.271 402.287 292.906ZM380.701 302.53C382.047 304.639 383.393 306.759 384.74 308.869C382.992 307.418 381.178 306.072 379.193 305.117C379.699 304.258 380.205 303.389 380.701 302.53ZM357.511 285.803C357.845 287.454 358.179 289.116 358.513 290.767C358.265 290.595 358.017 290.433 357.778 290.261L355.745 288.791C356.336 287.789 356.919 286.796 357.511 285.803ZM355.191 289.727C355.811 290.223 356.432 290.72 357.043 291.216C357.664 291.713 358.275 292.276 358.914 292.772C359.287 294.596 359.649 296.419 360.022 298.243C359.019 297.527 357.95 296.868 357.014 296.162C355.716 295.178 354.446 294.147 353.186 293.116C353.854 291.98 354.523 290.853 355.191 289.727ZM352.518 294.233C353.692 295.293 354.876 296.324 356.117 297.317C357.492 298.424 358.924 299.761 360.509 300.639C360.91 302.615 361.311 304.592 361.712 306.568C360.012 305.231 358.198 304 356.527 302.72C354.456 301.136 352.384 299.541 350.312 297.956C351.047 296.725 351.782 295.474 352.518 294.233ZM349.711 298.978C351.677 300.62 353.654 302.262 355.62 303.904C357.797 305.718 359.945 307.79 362.284 309.451C362.771 311.857 363.258 314.263 363.745 316.679C361.492 314.693 358.924 312.993 356.566 311.189C353.339 308.707 350.15 306.177 346.942 303.666C347.868 302.1 348.794 300.534 349.711 298.978ZM335.409 255.882C335.629 258.23 335.839 260.579 336.049 262.937C335.648 262.651 335.247 262.364 334.855 262.078L333.442 261.047C334.101 259.328 334.76 257.6 335.409 255.882ZM333.041 262.106C333.404 262.412 333.767 262.718 334.13 263.023C334.807 263.596 335.476 264.226 336.22 264.732C336.45 267.233 336.679 269.735 336.908 272.246C335.896 271.654 334.846 271.09 333.958 270.374C332.888 269.515 331.905 268.551 330.989 267.539C331.676 265.725 332.354 263.92 333.041 262.106ZM330.454 268.942C331.285 269.897 332.172 270.794 333.146 271.625C334.263 272.58 335.648 273.811 337.118 274.537C337.29 276.475 337.471 278.413 337.653 280.351C336.335 279.387 334.75 278.661 333.452 277.726C331.752 276.494 330.177 275.119 328.678 273.649C329.261 272.083 329.852 270.508 330.454 268.942ZM328.248 274.738C329.633 276.16 331.103 277.487 332.678 278.709C334.187 279.883 335.905 281.411 337.786 281.955C338.006 284.352 338.225 286.757 338.445 289.154C334.387 286.146 330.253 283.225 326.139 280.304C326.836 278.442 327.542 276.59 328.248 274.738ZM325.747 281.316C330.015 284.6 334.273 287.903 338.617 291.082C338.817 293.326 339.027 295.57 339.228 297.813C337.032 295.846 334.492 294.109 332.268 292.304C329.547 290.099 326.874 287.827 324.067 285.726C324.63 284.266 325.184 282.786 325.747 281.316ZM323.656 286.824C326.435 289.373 329.375 291.77 332.23 294.223C334.578 296.238 336.87 298.606 339.457 300.353C339.61 302.014 339.762 303.675 339.915 305.327C333.91 300.773 327.848 296.295 321.728 291.913C322.367 290.214 323.017 288.514 323.656 286.824ZM306.767 297.832C308.142 301.575 309.517 305.308 310.882 309.05C308.839 307.523 306.796 306.005 304.734 304.506C304.428 304.286 304.075 304.449 303.893 304.725C304.886 302.434 305.851 300.143 306.767 297.832ZM282.307 289.469C282.689 291.665 283.109 293.851 283.539 296.037C283.281 295.818 283.033 295.589 282.785 295.369C282.021 294.672 281.257 293.975 280.493 293.269C281.095 291.999 281.706 290.729 282.307 289.469ZM279.987 294.319C280.627 294.959 281.267 295.598 281.906 296.238C282.603 296.935 283.281 297.67 284.007 298.348C284.417 300.353 284.828 302.358 285.267 304.353C282.88 302.434 280.293 300.687 277.782 298.94C278.517 297.403 279.242 295.856 279.987 294.319ZM277.333 299.866C280.083 302.253 282.832 304.735 285.801 306.778C286.365 309.27 286.947 311.752 287.558 314.234C286.078 312.869 284.474 311.59 283.014 310.291C280.522 308.076 278.03 305.862 275.51 303.675C276.121 302.405 276.722 301.136 277.333 299.866ZM275.023 304.706C277.343 306.921 279.672 309.108 282.011 311.294C284.045 313.203 286.031 315.38 288.293 317.08C288.837 319.199 289.382 321.319 289.964 323.428C284.217 318.75 278.546 313.986 272.855 309.241C273.581 307.733 274.297 306.215 275.023 304.706ZM258.496 337.969C258.974 337.081 259.432 336.184 259.9 335.286C261.122 336.231 262.401 337.205 263.719 338.093C261.981 338.036 260.234 337.988 258.496 337.969ZM266.592 338.208C264.683 336.737 262.497 335.468 260.425 334.303C261.084 333.052 261.723 331.792 262.373 330.532C264.005 332.269 265.704 333.94 267.49 335.515C268.559 336.451 269.667 337.482 270.831 338.437C269.409 338.36 267.996 338.274 266.592 338.208ZM273.428 338.561C271.672 337.091 269.733 335.773 268.015 334.284C266.249 332.756 264.549 331.152 262.869 329.529C263.556 328.193 264.215 326.837 264.893 325.5C269.304 330.417 274.402 335.525 279.949 338.962C277.782 338.828 275.605 338.695 273.428 338.561ZM282.632 339.134C279.529 336.193 275.844 333.844 272.588 331.057C270.125 328.937 267.748 326.722 265.428 324.45C266.077 323.161 266.707 321.853 267.347 320.564C273.925 327.715 281.4 334.179 289.496 339.554C287.214 339.42 284.923 339.277 282.632 339.134ZM297.535 339.945C295.922 339.878 294.299 339.792 292.675 339.706C292.618 339.535 292.513 339.372 292.322 339.248C283.472 333.424 275.366 326.999 267.805 319.6C268.464 318.273 269.113 316.936 269.762 315.6C279.023 324.717 289.238 332.794 300.027 340.022C299.206 340.002 298.366 339.983 297.535 339.945ZM303.053 340.146C302.996 339.955 302.891 339.764 302.681 339.63C291.301 331.983 280.636 323.467 270.344 314.425C271.041 313.003 271.719 311.571 272.407 310.139C283.052 321.089 295.253 331.945 308.142 340.318C306.452 340.251 304.753 340.203 303.053 340.146ZM312.037 340.451C306.099 335.601 299.779 331.19 293.726 326.455C294.489 324.966 295.225 323.467 295.969 321.968C302.939 329.214 310.997 335.573 319.675 340.69C317.126 340.613 314.577 340.537 312.037 340.451ZM323.494 340.814C313.87 334.933 304.972 328.364 296.494 320.927C297.287 319.314 298.06 317.681 298.833 316.058C309.059 324.736 319.522 333.128 330.358 341.034C328.067 340.957 325.776 340.89 323.494 340.814ZM333.261 341.11C321.88 332.508 310.5 323.906 299.273 315.113C300.036 313.48 300.791 311.829 301.526 310.186C313.469 321.204 326.11 331.715 339.285 341.272C337.28 341.215 335.266 341.167 333.261 341.11ZM347.018 341.473C345.586 341.444 344.164 341.396 342.732 341.358C329.098 330.694 315.446 320.096 301.927 309.279C302.566 307.847 303.187 306.406 303.808 304.955C303.76 305.145 303.798 305.356 303.979 305.508C311.999 312.163 320.162 318.683 328.287 325.204C334.865 330.484 341.481 336.861 348.67 341.511C348.116 341.492 347.563 341.492 347.018 341.473ZM352.222 341.568C345.825 334.694 337.07 329.138 329.671 323.4C324.525 319.409 319.35 315.428 314.147 311.504C314.281 311.351 314.395 311.189 314.481 310.969C315.111 309.327 315.732 307.675 316.362 306.033C323.169 312.726 330.349 319.056 337.71 325.128C344.507 330.742 351.735 337.415 359.554 341.692C357.1 341.654 354.656 341.626 352.222 341.568ZM362.017 341.75C361.998 341.616 361.941 341.473 361.817 341.349C354.857 334.58 346.016 329.29 338.426 323.199C331.055 317.28 323.933 311.103 316.792 304.916C317.412 303.284 318.033 301.651 318.654 300.028C328.611 306.883 337.939 314.425 347.114 322.292C354.885 328.947 362.628 336.155 371.173 341.912C368.118 341.845 365.063 341.797 362.017 341.75ZM374.944 341.95C365.502 334.389 356.117 326.846 346.847 319.056C338.13 311.724 329.079 304.487 318.978 299.14C319.751 297.116 320.515 295.083 321.289 293.049C327.59 297.87 333.872 302.72 340.125 307.609C340.173 308.172 340.23 308.735 340.278 309.308C340.412 310.759 342.312 311.485 343.142 310.081L343.18 310.005C346.847 312.879 350.503 315.772 354.131 318.683C363.573 326.254 372.586 334.656 382.2 342.046C379.794 342.017 377.369 341.988 374.944 341.95ZM385.675 342.093C375.765 332.498 364.137 324.154 353.329 315.657C350.264 313.251 347.181 310.864 344.087 308.487C344.842 307.208 345.596 305.928 346.36 304.649C349.186 307.169 352.069 309.623 354.99 312.039C357.921 314.464 360.919 317.251 364.251 319.113C364.576 320.698 364.891 322.292 365.215 323.877C365.483 325.204 367.392 325.338 368.032 324.25L369.368 321.949C377.302 328.622 385.045 335.525 393.017 342.151C390.573 342.141 388.119 342.122 385.675 342.093ZM396.511 342.198C396.339 342.198 396.158 342.198 395.986 342.189C387.661 334.751 378.687 328.002 369.76 321.299L372.586 316.459C377.36 321.08 382.362 325.472 387.451 329.73C392.444 333.911 397.924 339.325 403.824 342.151C403.901 342.189 403.977 342.208 404.054 342.217C401.533 342.208 399.022 342.208 396.511 342.198ZM404.111 342.217C404.646 342.227 405.047 341.606 404.607 341.119C399.929 336.031 393.408 332.26 388.024 327.897C382.992 323.829 378.114 319.59 373.197 315.38C374.037 313.939 374.877 312.506 375.708 311.065C381.923 316.469 388.167 321.834 394.468 327.133C400.464 332.164 406.345 338.036 412.961 342.237C410.021 342.246 407.071 342.227 404.111 342.217ZM414.202 342.246C414.47 341.941 414.546 341.454 414.212 341.1C408.665 335.162 401.447 330.293 395.127 325.195C388.874 320.135 382.563 315.151 376.223 310.196C377.121 308.659 378.018 307.122 378.906 305.594C381.331 308.945 384.95 311.466 388.081 314.129C388.845 315.323 389.599 316.516 390.363 317.71C390.936 318.617 392.015 318.636 392.702 318.044C394.946 319.953 397.189 321.863 399.442 323.763C406.755 329.93 413.954 336.279 421.439 342.246C419.033 342.256 416.618 342.246 414.202 342.246ZM423.711 342.237C423.75 341.998 423.683 341.74 423.425 341.52C416.083 334.942 408.359 328.756 400.808 322.416C398.402 320.392 395.977 318.378 393.561 316.363C394.172 314.721 394.783 313.07 395.394 311.428C401.419 316.917 407.586 322.264 413.744 327.61C419.281 332.412 424.666 337.558 430.461 342.084C428.208 342.141 425.945 342.208 423.711 342.237ZM433.316 341.988C427.416 336.164 420.675 331.038 414.365 325.672C408.245 320.469 402.116 315.256 395.862 310.206C396.578 308.296 397.285 306.377 398.001 304.458C411.634 317.385 425.764 329.93 440.238 341.902C437.927 341.893 435.617 341.931 433.316 341.988ZM443.474 341.988C443.446 341.96 443.417 341.921 443.388 341.893C428.886 328.565 413.801 315.705 398.383 303.427C398.974 301.833 399.566 300.229 400.168 298.634C415.978 312.459 431.063 327.133 446.93 340.881C447.007 340.948 447.074 340.995 447.15 341.043L447.159 341.158C447.217 341.654 447.474 342.026 447.818 342.256C446.386 342.122 444.935 342.046 443.474 341.988Z" fill="#3C3C3B"/>
<path d="M372.584 109.631C372.032 126.749 372.429 143.795 373.757 160.818C374.05 164.611 378.363 164.659 378.07 160.818C376.741 143.987 376.362 127.181 376.879 110.279C383.159 111.215 409.786 112.128 416.048 113.064C421.81 113.904 428.849 113.496 434.352 115.753C443.34 119.426 441.407 130.398 441.252 140.626C441.149 148.405 440.821 156.184 440.407 163.939C426.037 163.939 391.318 163.939 376.931 163.939C374.154 163.939 374.154 169.941 376.931 169.941C391.974 169.941 427.365 169.941 442.408 169.941C443.65 169.941 444.478 168.548 444.564 166.94C445.237 155.247 445.634 143.555 445.617 131.839C445.617 126.005 446.997 116.161 443.133 112.176C438.785 107.686 429.504 109.03 424.363 108.262C414.927 106.87 385.16 105.477 375.724 104.085C374.257 103.868 373.584 105.477 373.688 107.086C373.101 107.566 372.636 108.382 372.584 109.631Z" fill="black"/>
<path d="M323.489 91.5565C340.676 91.5565 357.862 91.5565 375.031 91.5565C375.294 91.5565 375.523 91.5037 375.751 91.4335C376.981 91.6619 378.405 90.9766 378.405 89.3599C378.405 84.6679 378.405 79.9935 378.405 75.3015C378.405 72.4723 374.011 72.4723 374.011 75.3015C374.011 79.2554 374.011 83.2093 374.011 87.1632C357.686 87.1632 341.343 87.1632 325.018 87.1632C325.317 86.8294 325.528 86.39 325.58 85.8277C326.002 80.9951 326.424 76.1626 326.846 71.3124C342.907 71.6463 358.987 71.9802 375.048 72.2965C377.878 72.3492 377.878 67.956 375.048 67.9033C358.653 67.5694 342.24 67.2355 325.844 66.8841C325.229 66.8665 324.755 67.0774 324.403 67.3937C323.507 67.6046 322.716 68.2723 322.611 69.4146C322.136 74.8797 321.662 80.3274 321.187 85.7926C321.117 86.6888 321.504 87.3038 322.101 87.6201C320.801 88.8151 321.257 91.5565 323.489 91.5565Z" fill="black"/>
<path d="M399.614 93.7884C415.588 91.8026 431.562 91.0821 447.659 91.6445C448.678 91.6796 449.328 91.1173 449.609 90.3968C449.768 90.1156 449.856 89.7641 449.856 89.3775C449.856 83.1216 449.856 76.8832 449.856 70.6272C449.856 69.6255 449.311 68.9929 448.59 68.6942C448.432 67.7453 447.729 66.8666 446.517 66.7612C430.842 65.4256 415.254 65.6014 399.614 67.2884C398.226 67.4289 397.523 68.6063 397.523 69.6958C396.346 69.5728 395.081 70.2757 395.081 71.8046C395.081 77.2698 395.081 82.735 395.081 88.2001C395.081 89.9926 396.855 90.6428 398.156 90.1507C396.996 91.4863 397.453 94.0519 399.614 93.7884ZM445.48 71.0665C445.48 76.4438 445.48 81.8036 445.48 87.1809C430.139 86.7592 414.885 87.4797 399.632 89.3775C399.421 89.4127 399.21 89.4654 399.035 89.5357C399.316 89.2018 399.509 88.7449 399.509 88.1826C399.509 82.7174 399.509 77.2522 399.509 71.787C399.509 71.7519 399.491 71.7167 399.491 71.6816C399.544 71.6816 399.597 71.6816 399.65 71.6816C414.92 70.0297 430.156 69.8364 445.48 71.0665Z" fill="black"/>
<path d="M399.616 36.9124C415.59 34.9266 431.563 34.2061 447.66 34.7685C448.68 34.8036 449.33 34.2413 449.611 33.5208C449.769 33.2396 449.857 32.8882 449.857 32.5016C449.857 26.2456 449.857 20.0072 449.857 13.7512C449.857 12.7496 449.312 12.117 448.592 11.8182C448.434 10.8693 447.731 9.99062 446.518 9.88518C430.843 8.54964 415.256 8.72537 399.616 10.4124C398.228 10.553 397.525 11.7303 397.525 12.8199C396.347 12.6969 395.082 13.3998 395.082 14.9286C395.082 20.3938 395.082 25.859 395.082 31.3242C395.082 33.1166 396.857 33.7668 398.157 33.2748C396.997 34.6103 397.454 37.176 399.616 36.9124ZM445.481 14.1905C445.481 19.5679 445.481 24.9276 445.481 30.3049C430.14 29.8832 414.887 30.6037 399.633 32.5016C399.423 32.5367 399.212 32.5894 399.036 32.6597C399.317 32.3258 399.51 31.8689 399.51 31.3066C399.51 25.8414 399.51 20.3762 399.51 14.911C399.51 14.8759 399.493 14.8408 399.493 14.8056C399.546 14.8056 399.598 14.8056 399.651 14.8056C414.922 13.1538 430.158 12.9604 445.481 14.1905Z" fill="black"/>
<path d="M123.358 73.1701C124.895 73.1701 124.895 70.7833 123.358 70.7833C96.9403 70.7356 70.5326 70.6878 44.1154 70.6497C42.5783 70.6497 42.5783 73.0365 44.1154 73.0365C70.5231 73.0747 96.9403 73.1224 123.358 73.1701Z" fill="black"/>
<path d="M156.097 83.6721C157.635 83.6721 157.635 81.2853 156.097 81.2853C129.68 81.2375 70.5326 81.1898 44.1154 81.1516C42.5783 81.1516 42.5783 83.5384 44.1154 83.5384C70.5231 83.5766 129.68 83.6243 156.097 83.6721Z" fill="black"/>
<path d="M130.992 73.0372C143.718 73.4095 156.445 73.3522 169.171 73.7246C170.708 73.7723 170.708 71.3855 169.171 71.3378C156.445 70.9654 143.718 71.0227 130.992 70.6504C129.455 70.6026 129.464 72.9894 130.992 73.0372Z" fill="black"/>
<path d="M231.719 71.2711C212.472 70.6983 193.215 70.5169 173.958 70.746C172.421 70.7651 172.421 73.1519 173.958 73.1328C193.215 72.9037 212.472 73.0851 231.719 73.6579C233.256 73.7056 233.256 71.3188 231.719 71.2711Z" fill="black"/>
<path d="M34.3979 27.1672V21.5017H37.1973V27.1672H34.3979ZM34.3979 18.669V15.8328H37.1973V18.669H34.3979ZM26 30V13H34.3979V15.8328H28.7993V18.669H34.3979V21.5017H28.7993V27.1672H34.3979V30H26Z" fill="black"/>
<path d="M45.5986 30V15.8328H40V13H54V15.8328H48.3979V30H45.5986Z" fill="black"/>
<path d="M59.6021 30V27.1672H65.2007V30H59.6021ZM65.2007 27.1672V24.3345H68V27.1672H65.2007ZM56.8027 27.1672V15.8328H59.6021V27.1672H56.8027ZM65.2007 18.669V15.8328H68V18.669H65.2007ZM59.6021 15.8328V13H65.2007V15.8328H59.6021Z" fill="black"/>
<path d="M72 30V24.3345H74.8885V27.1672H83.554V30H72ZM74.8885 24.3345V21.5017H77.777V24.3345H74.8885ZM77.777 21.5017V18.669H80.6655V21.5017H77.777ZM80.6655 18.669V15.8328H83.554V18.669H80.6655ZM72 15.8328V13H80.6655V15.8328H72Z" fill="black"/>
<path d="M95.1115 27.1672V15.8328H89.3345V27.1672H95.1115ZM86.446 30V13H98V30H86.446Z" fill="black"/>
</svg>
