<svg width="54" height="53" viewBox="0 0 54 53" fill="none" xmlns="http://www.w3.org/2000/svg">
<path d="M20.9699 0H16.9509V4.01905H20.9699V0Z" fill="#FFB197"/>
<path d="M24.9901 0H20.9711V4.01905H24.9901V0Z" fill="#FFB197"/>
<path d="M29.0103 0H24.9913V4.01905H29.0103V0Z" fill="black"/>
<path d="M33.0282 0H29.0091V4.01905H33.0282V0Z" fill="#FFB197"/>
<path d="M37.0484 0H33.0293V4.01905H37.0484V0Z" fill="black"/>
<path d="M16.9521 4.01904H12.933V8.0381H16.9521V4.01904Z" fill="black"/>
<path d="M20.9699 4.01904H16.9509V8.0381H20.9699V4.01904Z" fill="black"/>
<path d="M24.9901 4.01904H20.9711V8.0381H24.9901V4.01904Z" fill="black"/>
<path d="M29.0103 4.01904H24.9913V8.0381H29.0103V4.01904Z" fill="black"/>
<path d="M33.0282 4.01904H29.0091V8.0381H33.0282V4.01904Z" fill="black"/>
<path d="M37.0484 4.01904H33.0293V8.0381H37.0484V4.01904Z" fill="black"/>
<path d="M41.0686 4.01904H37.0495V8.0381H41.0686V4.01904Z" fill="black"/>
<path d="M12.9319 8.03918H8.91282V12.0582H12.9319V8.03918Z" fill="black"/>
<path d="M16.9521 8.03918H12.933V12.0582H16.9521V8.03918Z" fill="black"/>
<path d="M20.9699 8.03918H16.9509V12.0582H20.9699V8.03918Z" fill="black"/>
<path d="M24.9901 8.03918H20.9711V12.0582H24.9901V8.03918Z" fill="black"/>
<path d="M29.0103 8.03918H24.9913V12.0582H29.0103V8.03918Z" fill="black"/>
<path d="M33.0282 8.03918H29.0091V12.0582H33.0282V8.03918Z" fill="black"/>
<path d="M37.0484 8.03918H33.0293V12.0582H37.0484V8.03918Z" fill="black"/>
<path d="M41.0686 8.03918H37.0495V12.0582H41.0686V8.03918Z" fill="black"/>
<path d="M45.0864 8.03918H41.0674V12.0582H45.0864V8.03918Z" fill="black"/>
<path d="M8.91399 12.0582H4.89494V16.0773H8.91399V12.0582Z" fill="black"/>
<path d="M12.9319 12.0582H8.91282V16.0773H12.9319V12.0582Z" fill="black"/>
<path d="M16.9521 12.0582H12.933V16.0773H16.9521V12.0582Z" fill="black"/>
<path d="M20.9699 12.0582H16.9509V16.0773H20.9699V12.0582Z" fill="black"/>
<path d="M24.9901 12.0582H20.9711V16.0773H24.9901V12.0582Z" fill="#FFB197"/>
<path d="M29.0103 12.0582H24.9913V16.0773H29.0103V12.0582Z" fill="black"/>
<path d="M33.0282 12.0582H29.0091V16.0773H33.0282V12.0582Z" fill="#FFB197"/>
<path d="M37.0484 12.0582H33.0293V16.0773H37.0484V12.0582Z" fill="black"/>
<path d="M41.0686 12.0582H37.0495V16.0773H41.0686V12.0582Z" fill="black"/>
<path d="M45.0864 12.0582H41.0674V16.0773H45.0864V12.0582Z" fill="black"/>
<path d="M49.1066 12.0582H45.0876V16.0773H49.1066V12.0582Z" fill="black"/>
<path d="M4.89381 16.0773H0.874756V20.0963H4.89381V16.0773Z" fill="black"/>
<path d="M8.91399 16.0773H4.89494V20.0963H8.91399V16.0773Z" fill="black"/>
<path d="M12.9319 16.0773H8.91282V20.0963H12.9319V16.0773Z" fill="black"/>
<path d="M16.9521 16.0773H12.933V20.0963H16.9521V16.0773Z" fill="black"/>
<path d="M20.9699 16.0773H16.9509V20.0963H20.9699V16.0773Z" fill="#FFB197"/>
<path d="M24.9901 16.0773H20.9711V20.0963H24.9901V16.0773Z" fill="#FFB197"/>
<path d="M29.0103 16.0773H24.9913V20.0963H29.0103V16.0773Z" fill="#FFB197"/>
<path d="M33.0282 16.0773H29.0091V20.0963H33.0282V16.0773Z" fill="#FFB197"/>
<path d="M37.0484 16.0773H33.0293V20.0963H37.0484V16.0773Z" fill="black"/>
<path d="M41.0686 16.0773H37.0495V20.0963H41.0686V16.0773Z" fill="black"/>
<path d="M45.0864 16.0773H41.0674V20.0963H45.0864V16.0773Z" fill="black"/>
<path d="M49.1066 16.0773H45.0876V20.0963H49.1066V16.0773Z" fill="black"/>
<path d="M53.1245 16.0773H49.1055V20.0963H53.1245V16.0773Z" fill="black"/>
<path d="M4.89381 20.0963H0.874756V24.1154H4.89381V20.0963Z" fill="#FFB197"/>
<path d="M8.91399 20.0963H4.89494V24.1154H8.91399V20.0963Z" fill="black"/>
<path d="M12.9319 20.0963H8.91282V24.1154H12.9319V20.0963Z" fill="black"/>
<path d="M16.9521 20.0963H12.933V24.1154H16.9521V20.0963Z" fill="black"/>
<path d="M20.9699 20.0963H16.9509V24.1154H20.9699V20.0963Z" fill="#FFB197"/>
<path d="M24.9901 20.0963H20.9711V24.1154H24.9901V20.0963Z" fill="black"/>
<path d="M29.0103 20.0963H24.9913V24.1154H29.0103V20.0963Z" fill="black"/>
<path d="M33.0282 20.0963H29.0091V24.1154H33.0282V20.0963Z" fill="black"/>
<path d="M37.0484 20.0963H33.0293V24.1154H37.0484V20.0963Z" fill="#FFB197"/>
<path d="M41.0686 20.0963H37.0495V24.1154H41.0686V20.0963Z" fill="black"/>
<path d="M45.0864 20.0963H41.0674V24.1154H45.0864V20.0963Z" fill="black"/>
<path d="M49.1066 20.0963H45.0876V24.1154H49.1066V20.0963Z" fill="black"/>
<path d="M53.1245 20.0963H49.1055V24.1154H53.1245V20.0963Z" fill="#FFB197"/>
<path d="M4.89381 24.1154H0.874756V28.1344H4.89381V24.1154Z" fill="#FFB197"/>
<path d="M8.91399 24.1154H4.89494V28.1344H8.91399V24.1154Z" fill="black"/>
<path d="M12.9319 24.1154H8.91282V28.1344H12.9319V24.1154Z" fill="black"/>
<path d="M16.9521 24.1154H12.933V28.1344H16.9521V24.1154Z" fill="black"/>
<path d="M20.9699 24.1154H16.9509V28.1344H20.9699V24.1154Z" fill="#FFB197"/>
<path d="M24.9901 24.1154H20.9711V28.1344H24.9901V24.1154Z" fill="#FFB197"/>
<path d="M29.0103 24.1154H24.9913V28.1344H29.0103V24.1154Z" fill="#FFB197"/>
<path d="M33.0282 24.1154H29.0091V28.1344H33.0282V24.1154Z" fill="#FFB197"/>
<path d="M37.0484 24.1154H33.0293V28.1344H37.0484V24.1154Z" fill="black"/>
<path d="M41.0686 24.1154H37.0495V28.1344H41.0686V24.1154Z" fill="black"/>
<path d="M45.0864 24.1154H41.0674V28.1344H45.0864V24.1154Z" fill="black"/>
<path d="M49.1066 24.1154H45.0876V28.1344H49.1066V24.1154Z" fill="black"/>
<path d="M53.1245 24.1154H49.1055V28.1344H53.1245V24.1154Z" fill="black"/>
<path d="M4.89381 28.1344H0.874756V32.1535H4.89381V28.1344Z" fill="black"/>
<path d="M8.91399 28.1344H4.89494V32.1535H8.91399V28.1344Z" fill="black"/>
<path d="M12.9319 28.1344H8.91282V32.1535H12.9319V28.1344Z" fill="black"/>
<path d="M16.9521 28.1344H12.933V32.1535H16.9521V28.1344Z" fill="black"/>
<path d="M20.9699 28.1344H16.9509V32.1535H20.9699V28.1344Z" fill="#FFB197"/>
<path d="M24.9901 28.1344H20.9711V32.1535H24.9901V28.1344Z" fill="black"/>
<path d="M29.0103 28.1344H24.9913V32.1535H29.0103V28.1344Z" fill="black"/>
<path d="M33.0282 28.1344H29.0091V32.1535H33.0282V28.1344Z" fill="black"/>
<path d="M37.0484 28.1344H33.0293V32.1535H37.0484V28.1344Z" fill="#FFB197"/>
<path d="M41.0686 28.1344H37.0495V32.1535H41.0686V28.1344Z" fill="black"/>
<path d="M45.0864 28.1344H41.0674V32.1535H45.0864V28.1344Z" fill="black"/>
<path d="M49.1066 28.1344H45.0876V32.1535H49.1066V28.1344Z" fill="black"/>
<path d="M53.1245 28.1344H49.1055V32.1535H53.1245V28.1344Z" fill="#FFB197"/>
<path d="M4.89381 32.1534H0.874756V36.1725H4.89381V32.1534Z" fill="#FFB197"/>
<path d="M8.91399 32.1534H4.89494V36.1725H8.91399V32.1534Z" fill="black"/>
<path d="M12.9319 32.1534H8.91282V36.1725H12.9319V32.1534Z" fill="black"/>
<path d="M16.9521 32.1534H12.933V36.1725H16.9521V32.1534Z" fill="black"/>
<path d="M20.9699 32.1534H16.9509V36.1725H20.9699V32.1534Z" fill="#FFB197"/>
<path d="M24.9901 32.1534H20.9711V36.1725H24.9901V32.1534Z" fill="#FFB197"/>
<path d="M29.0103 32.1534H24.9913V36.1725H29.0103V32.1534Z" fill="#FFB197"/>
<path d="M33.0282 32.1534H29.0091V36.1725H33.0282V32.1534Z" fill="#FFB197"/>
<path d="M37.0484 32.1534H33.0293V36.1725H37.0484V32.1534Z" fill="black"/>
<path d="M41.0686 32.1534H37.0495V36.1725H41.0686V32.1534Z" fill="black"/>
<path d="M45.0864 32.1534H41.0674V36.1725H45.0864V32.1534Z" fill="black"/>
<path d="M49.1066 32.1534H45.0876V36.1725H49.1066V32.1534Z" fill="black"/>
<path d="M53.1245 32.1534H49.1055V36.1725H53.1245V32.1534Z" fill="black"/>
<path d="M8.91399 36.1725H4.89494V40.1915H8.91399V36.1725Z" fill="black"/>
<path d="M12.9319 36.1725H8.91282V40.1915H12.9319V36.1725Z" fill="black"/>
<path d="M16.9521 36.1725H12.933V40.1915H16.9521V36.1725Z" fill="black"/>
<path d="M20.9699 36.1725H16.9509V40.1915H20.9699V36.1725Z" fill="black"/>
<path d="M24.9901 36.1725H20.9711V40.1915H24.9901V36.1725Z" fill="#FFB197"/>
<path d="M29.0103 36.1725H24.9913V40.1915H29.0103V36.1725Z" fill="black"/>
<path d="M33.0282 36.1725H29.0091V40.1915H33.0282V36.1725Z" fill="#FFB197"/>
<path d="M37.0484 36.1725H33.0293V40.1915H37.0484V36.1725Z" fill="black"/>
<path d="M41.0686 36.1725H37.0495V40.1915H41.0686V36.1725Z" fill="black"/>
<path d="M45.0864 36.1725H41.0674V40.1915H45.0864V36.1725Z" fill="black"/>
<path d="M49.1066 36.1725H45.0876V40.1915H49.1066V36.1725Z" fill="#FFB197"/>
<path d="M12.9319 40.1926H8.91282V44.2117H12.9319V40.1926Z" fill="black"/>
<path d="M16.9521 40.1926H12.933V44.2117H16.9521V40.1926Z" fill="black"/>
<path d="M20.9699 40.1926H16.9509V44.2117H20.9699V40.1926Z" fill="black"/>
<path d="M24.9901 40.1926H20.9711V44.2117H24.9901V40.1926Z" fill="black"/>
<path d="M29.0103 40.1926H24.9913V44.2117H29.0103V40.1926Z" fill="black"/>
<path d="M33.0282 40.1926H29.0091V44.2117H33.0282V40.1926Z" fill="black"/>
<path d="M37.0484 40.1926H33.0293V44.2117H37.0484V40.1926Z" fill="black"/>
<path d="M41.0686 40.1926H37.0495V44.2117H41.0686V40.1926Z" fill="black"/>
<path d="M45.0864 40.1926H41.0674V44.2117H45.0864V40.1926Z" fill="#FFB197"/>
<path d="M16.9521 44.2117H12.933V48.2307H16.9521V44.2117Z" fill="black"/>
<path d="M20.9699 44.2117H16.9509V48.2307H20.9699V44.2117Z" fill="black"/>
<path d="M24.9901 44.2117H20.9711V48.2307H24.9901V44.2117Z" fill="black"/>
<path d="M29.0103 44.2117H24.9913V48.2307H29.0103V44.2117Z" fill="black"/>
<path d="M33.0282 44.2117H29.0091V48.2307H33.0282V44.2117Z" fill="black"/>
<path d="M37.0484 44.2117H33.0293V48.2307H37.0484V44.2117Z" fill="black"/>
<path d="M41.0686 44.2117H37.0495V48.2307H41.0686V44.2117Z" fill="black"/>
<path d="M20.9699 48.2307H16.9509V52.2498H20.9699V48.2307Z" fill="black"/>
<path d="M24.9901 48.2307H20.9711V52.2498H24.9901V48.2307Z" fill="black"/>
<path d="M29.0103 48.2307H24.9913V52.2498H29.0103V48.2307Z" fill="#FFB197"/>
<path d="M33.0282 48.2307H29.0091V52.2498H33.0282V48.2307Z" fill="#FFB197"/>
<path d="M37.0484 48.2307H33.0293V52.2498H37.0484V48.2307Z" fill="black"/>
</svg>
