<svg width="371" height="25" viewBox="0 0 371 25" fill="none" xmlns="http://www.w3.org/2000/svg">
<path d="M12.6021 20.1259V12.1278H16.6011V20.1259H12.6021ZM12.6021 8.12878V4.12488H16.6011V8.12878H12.6021ZM0.60498 24.1249V0.125854H12.6021V4.12488H4.604V8.12878H12.6021V12.1278H4.604V20.1259H12.6021V24.1249H0.60498ZM20.605 24.1249V4.12488H24.604V12.1278H32.6021V4.12488H36.6011V24.1249H32.6021V16.1268H24.604V24.1249H20.605ZM24.604 4.12488V0.125854H32.6021V4.12488H24.604ZM44.604 24.1249V20.1259H52.6021V24.1249H44.604ZM52.6021 20.1259V16.1268H56.6011V20.1259H52.6021ZM40.605 20.1259V4.12488H44.604V20.1259H40.605ZM52.6021 8.12878V4.12488H56.6011V8.12878H52.6021ZM44.604 4.12488V0.125854H52.6021V4.12488H44.604ZM72.6021 24.1249V16.1268H76.6011V24.1249H72.6021ZM68.603 16.1268V12.1278H72.6021V16.1268H68.603ZM68.603 8.12878V4.12488H72.6021V8.12878H68.603ZM60.605 24.1249V0.125854H64.604V8.12878H68.603V12.1278H64.604V24.1249H60.605ZM72.6021 4.12488V0.125854H76.6011V4.12488H72.6021ZM88.6128 24.1249V0.125854H92.6118V24.1249H88.6128ZM96.6206 24.1249V0.125854H100.62V4.12488H104.619V8.12878H100.62V24.1249H96.6206ZM108.618 24.1249V12.1278H104.619V8.12878H108.618V0.125854H112.617V24.1249H108.618ZM132.626 24.1249V4.12488H124.628V0.125854H144.628V4.12488H136.625V24.1249H132.626ZM148.632 24.1249V0.125854H152.631V24.1249H148.632ZM164.638 12.1278V8.12878H168.637V12.1278H164.638ZM156.64 24.1249V0.125854H160.639V4.12488H164.638V8.12878H160.639V24.1249H156.64ZM172.636 24.1249V8.12878H168.637V4.12488H172.636V0.125854H176.64V24.1249H172.636ZM180.644 24.1249V0.125854H196.64V4.12488H184.643V8.12878H196.64V12.1278H184.643V20.1259H196.64V24.1249H180.644Z" fill="black"/>
<path d="M217.126 12.1278V8.12878H229.124V12.1278H217.126Z" fill="black"/>
<path d="M261.612 20.1259V12.1278H265.611V20.1259H261.612ZM261.612 8.12878V4.12488H265.611V8.12878H261.612ZM249.615 24.1249V0.125854H261.612V4.12488H253.614V8.12878H261.612V12.1278H253.614V20.1259H261.612V24.1249H249.615ZM269.615 24.1249V0.125854H273.614V24.1249H269.615ZM285.621 24.1249V4.12488H277.623V0.125854H297.623V4.12488H289.62V24.1249H285.621ZM305.625 24.1249V20.1259H313.624V24.1249H305.625ZM313.624 20.1259V16.1268H317.623V20.1259H313.624ZM301.626 20.1259V4.12488H305.625V20.1259H301.626ZM313.624 8.12878V4.12488H317.623V8.12878H313.624ZM305.625 4.12488V0.125854H313.624V4.12488H305.625ZM325.625 24.1249V20.1259H333.624V24.1249H325.625ZM321.626 20.1259V4.12488H325.625V20.1259H321.626ZM333.624 20.1259V4.12488H337.623V20.1259H333.624ZM325.625 4.12488V0.125854H333.624V4.12488H325.625ZM341.626 24.1249V0.125854H345.625V24.1249H341.626ZM349.634 24.1249V0.125854H353.633V4.12488H357.632V8.12878H353.633V24.1249H349.634ZM361.631 24.1249V12.1278H357.632V8.12878H361.631V0.125854H365.63V24.1249H361.631Z" fill="black"/>
</svg>
